<svg xmlns="http://www.w3.org/2000/svg" width="13.032" height="17.854" viewBox="0 0 13.032 17.854" fill="#707070">
  <g id="Time" transform="translate(-22.44 -12.25)">
    <path id="Path_5399" data-name="Path 5399" d="M35.344,30h6.861a.052.052,0,0,1,.052.052v.322a3.163,3.163,0,0,1-3.173,3.175h-.629a3.163,3.163,0,0,1-3.166-3.168v-.319a.052.052,0,0,1,.052-.052Z" transform="translate(-9.81 -13.55)" />
    <path id="Path_5400" data-name="Path 5400" d="M0,0H6.961V1.256A3.163,3.163,0,0,1,3.795,4.413H3.166A3.163,3.163,0,0,1,0,1.256Z" transform="translate(32.441 28.36) rotate(180)"/>
    <path id="Path_5401" data-name="Path 5401" d="M34.166,16.525v-2.65h.814a.473.473,0,0,0,.473-.473v-.679a.473.473,0,0,0-.473-.473H22.913a.473.473,0,0,0-.473.473v.67a.473.473,0,0,0,.473.473h.842v2.65a5.217,5.217,0,0,0,2.86,4.666,5.217,5.217,0,0,0-2.86,4.656v2.65h-.823a.473.473,0,0,0-.473.473v.67a.473.473,0,0,0,.473.473H35a.473.473,0,0,0,.473-.473v-.66A.473.473,0,0,0,35,28.5h-.833V25.838a5.217,5.217,0,0,0-2.86-4.656A5.217,5.217,0,0,0,34.166,16.525Zm-4.55,4.656h0a.774.774,0,0,0,.542.743,4.1,4.1,0,0,1,2.9,3.913V28.36h-8.2V25.838a4.1,4.1,0,0,1,2.9-3.913.774.774,0,0,0,.542-.743h0a.774.774,0,0,0-.542-.743,4.1,4.1,0,0,1-2.9-3.913V14h8.2v2.522a4.1,4.1,0,0,1-2.9,3.913A.774.774,0,0,0,29.616,21.181Z" transform="translate(0 0)"/>
  </g>
</svg>
