<svg id="svgLogo" xmlns="http://www.w3.org/2000/svg" viewBox="0 0 706.61 231.35"><defs><style>.cls-1,.cls-2,.cls-4{fill:#fff;}.cls-1{fill-rule:evenodd;}.cls-3,.cls-4{isolation:isolate;}.cls-4{font-size:40px;font-family:ArialMT, Arial;}</style></defs><g id="Layer_2" data-name="Layer 2"><g id="Layer_2-2" data-name="Layer 2-2"><path class="cls-1" d="M191.5,149.43c3,.88,6.36-1.1,8.64-.35-.08,2.76-2.26,4.75-3.78,6.48-4.68,5.31-10.57,9.57-15.64,14.74,3.36-.18,6.85-1.18,9.53-1.44.8,2.2-.66,4.45-1.44,6.3-5.59,13.44-16.8,23.18-29.65,29.5.08,1.13,1.22,1.85,2.15,2.88.71.78,2.47,2,2.53,2.88.16,2.28-4.44,2.37-5.58,4.14-9.42,3.7-20.24,5.56-31.08,3.24-7.49-1.6-14-4.17-18.88-9-1.3-1.29-3.13-4.92-4.32-4.88-.84,0-3.64,4.06-4.31,4.7-1.86,1.74-3.6,2.67-4.85,4a47,47,0,0,1-26.59,5.58,51.1,51.1,0,0,1-19.24-5c-1.31-.66-4.73-2.16-4.86-3.24s1.73-2.39,2.34-3a28.56,28.56,0,0,1,2.7-2.7c-13.32-6.34-23-16.29-29.47-29.88-.91-1.89-2.29-4.15-1.63-6.46,2.93,0,6.11,1.3,9.35,1.61-1.14-2-3.27-3.25-5-4.85a138,138,0,0,1-10.25-10.27c-1.53-1.72-3.77-3.7-3.77-6.47,2.72-.32,5.26.92,8.62.54A105.12,105.12,0,0,1,7.83,98.52,98.81,98.81,0,0,1,23.11,53,94.3,94.3,0,0,1,53.84,23,96.08,96.08,0,0,1,100.2,8.75a92.81,92.81,0,0,1,49.25,10.79c18.21,9.88,31.62,23,41.17,41.56a104.58,104.58,0,0,1,11.13,43.71C202.35,121.64,197.5,136.16,191.5,149.43Zm5-49.12a92.69,92.69,0,0,0-15.27-45.14c-13.43-20.46-34.74-36.79-64.89-40.67a96,96,0,0,0-39.52,3.42C54.75,24.69,38.14,39,27.06,56.43c-7.27,11.45-13.59,27.35-14.37,44.43a93.15,93.15,0,0,0,2.5,26.45c1.88,7.62,4.18,15,8.28,21.22,8.62-.11,17.17-1.72,25-3.24-5.69-9.86-10.9-20.43-11.69-35.07a68.69,68.69,0,0,1,8.81-38c10.66-18.62,30.79-34.69,59.67-34.53a66.6,66.6,0,0,1,36.3,10.78A65.93,65.93,0,0,1,164.2,73c5.62,10.62,9,23.12,8.26,38.5-.61,13.43-5.83,24.42-11.32,32.93-.28.44-1,1-.71,1.61,8,1.58,15.58,3.58,25.33,3.42A92.06,92.06,0,0,0,196.54,100.31Zm-89.86-52.7c3.55.59,8.33,1.77,6.11,6.47,6.28.73,11,3,16,5a4.34,4.34,0,0,1,3.77-3.78c5.82-.48,6.14,8.89,10.79,10.08a61.51,61.51,0,0,0,6.1-6.3C139.2,49.31,125.6,42,107,41.13c0-.11,0-.21-.18-.19C106.47,42.84,106.78,45.43,106.68,47.61ZM60.31,58.77a121.54,121.54,0,0,0,8.63,8.81c8.1-7.84,19.38-13.45,34-14.22a56.43,56.43,0,0,0,.54-8.81c0-1.13.43-2.79-.54-3.42C83.76,42.05,70.48,48.86,60.31,58.77Zm46-6.14c1.27.14,2-.24,2.14-1.24C107.47,50.17,106.39,51.39,106.33,52.63Zm.53,4.14c-.76,3.09-.18,7.51-.37,11.17q11.12,1.31,18.7,6.11c1.12-.42,1.69-1.79,2.71-1.8,1.69,0,3.75,3.43,5,3.78A3.83,3.83,0,0,1,134,75a6.52,6.52,0,0,0-4.67-2.88c-1.19-2.75-3.44-5.92-1.79-9.89C121.62,59.39,115.31,57,106.86,56.77Zm-35.77,13a69.54,69.54,0,0,0,8.09,8.1,39.55,39.55,0,0,1,24.09-9.89V57C88.39,57.07,79.28,63,71.09,69.73ZM135.62,62c-.82-1.19-1.17-3.46-2.88-3.42-3.51.09-2.56,9.64-1.25,11.52,1.73,2.47,5,1.08,6.46,3.6a4,4,0,0,0,.73,2.7c3.14-.72,6.13-.62,8.07,1.06.14-2.51.52-5.58-.54-7.36A24.52,24.52,0,0,1,135.62,62ZM63.54,73c.64-.8,2.9-2.84,2.89-3.24a18.32,18.32,0,0,0-2.16-2c-2.31-2.33-4.8-5.08-6.65-6.66-9.5,10.76-17,23.56-17.79,43,4.56-.11,7.61.27,12.21.18A54.58,54.58,0,0,1,63.54,73Zm88.25-11.33a46.78,46.78,0,0,0-5.4,5.76c1.52,1.24,2.54,1.73,3.25,3.24,1.09,2.33,0,5.17.35,8.08.25,2.33,2,4.15,2.88,6.31a60.6,60.6,0,0,1,4.49,19.78c4,.08,7.87.28,12,.18C168.84,85.23,161.45,72.31,151.79,61.64ZM81.34,80.35c2.47,2.32,4.63,5,7.19,7.2,4.15-2.63,8.07-5.47,14.56-5.77a64.86,64.86,0,0,0,0-10.43C93.46,72,86.64,75.41,81.34,80.35ZM106.49,82c5.92-.09,9.1,2.55,12.78,4.69.1-1.45.32-2.8,1.25-3.42a7.12,7.12,0,0,1,4.14.9,4.25,4.25,0,0,0,1.61-5.22c-4.91-4.18-11.36-6.85-19.77-7.56C106.49,74.89,106.49,78.42,106.49,82Zm-37.9-9.71c-6.92,8.14-12.62,17.47-13.14,32,3.91-.12,7.36.21,11.15.18A39.81,39.81,0,0,1,76.67,80.17C73.89,77.61,71.59,74.57,68.59,72.25Zm69.18,14c-2.5-2.51-5.38-8-7.72-9.88-.78.13-1.41-.5-2,0a10,10,0,0,1,2,5.38c3.65,2.11,5.93,5.58,9.33,7.92C141.73,88.4,138.84,87.34,137.77,86.28Zm-2.87-7.56c1.81,1.86,3.47,4.8,5.76,5.59-.41-6.64,9.67-1.25,6.09,2.7-4.37-1-4.32,2.3-5.38,5.39-.2.56-.71,1.21-.72,1.62-.06,1.36,1.09,3.15,1.43,4.85a44.49,44.49,0,0,1,.55,5.94c3.8,0,7.78-.12,11.3.19-.07-9.63-2.9-16.51-6.1-23-2.58-1.37-5.8-4.22-9.7-1.79C137.26,78.86,135.93,75.93,134.9,78.72Zm-56.26,4c-4.46,5.66-8.37,11.88-8.63,21.77,2.07.49,2.59-1.77,3.44-2.88s2.09-2.32,3-3.42c1.9-2.21,4-4.94,6.64-6.11,1.34-.61,2.64-.5,3.07-1.8A48.26,48.26,0,0,0,78.64,82.69Zm58.41,10.79c-1.32-.82-2.23-2.81-3.59-4.86-1-1.47-2.83-4.49-4-4.49s-1.38,1.63-2.33,2.33C129,88,130.52,90.89,132,93.11c.7,1.06,2,1.69,2.33,2.9.68,2.79-1.05,5.5-.18,8.8,1.82.2,3.14-.06,5.2,0-.19-.75-1.54-.37-2.15-.72-1.83-1.09-1.23-4.54-.54-6.47.29-.5,1.12-.44,1.62-.72C137.76,95.91,137.55,94.55,137.05,93.48Zm-32.89-8.64C97,84.52,91,89.1,88.17,93.3c2.63,1.5,3.76-1.53,5.75-2.69a7.87,7.87,0,0,1,4.49-1.08c4.79.31,3.93,4.67,3.07,8.46-.4,1.66-1.47,3-1.64,4.66-.17,1.84.84,3.28.2,5.58-1.34-.48-2.88,0-4.15.19-1.53,4,2.5,4.71,2.88,7.92-1.71,1.69-2.89,3.93-5.4,4.84-2.77-1.76-3.05-6-7.72-5.93,2.85,8.61,16.07,15.38,26.42,10.62a58.89,58.89,0,0,1-7-2.88c-1.65-.81-5.6-2.43-5.58-4.5a3.83,3.83,0,0,1,1.8-2.34c1-.3,2,.21,2.88,0,5.7-1.41,5.34-9.85,2.69-14.39-1.53-2.63-4.62-3.47-3.94-6.83.42-2.09,3.09-2.45,5.38-3.06a16.79,16.79,0,0,1,7.19-.18c1.14,1.49,3.29,3.5,5.93,2.33C119.19,88.27,111.58,85.19,104.16,84.84Zm18.52,12.59c-3.31,1.25-4.85-1.14-6.84-1.78-.87-.3-2.08-.27-3.22-.55-2.57-.62-4.11-1.68-5.76.55,1.21,2.31,2.92,4,4,6.46a21.38,21.38,0,0,1,.72,10.44c-.61,2.6-5.11,4.26-4.68,7.2s5.5,1.67,7.9,2.7,1.57,6.11-.35,7.37c-2.79,1.84-6.27-.27-9.35.9-1.08,1.43-3.2,4-3.42,6.84,0,.7.32,1.57.37,2.34.17,2.39-.24,5.51,1.8,6.47,3.2-1,5.21-2.74,8.62-2.51,4.14.27,6.32,4.68,9.71,4.68a5.94,5.94,0,0,0,4.32-2.53c1-1.86,0-4.51.36-7.19.29-1.94,1.54-3,1.44-4.67-1.62-1.66-4.42-.36-6.49-1.09s-4.55-4.27-4.13-6.83c2.66-2.58,7.17-.16,10.79,0-.09-2.64-3.94-2.81-4.31-5.4-.64-4.26,4.17-3.61,6.65-4.86a6.15,6.15,0,0,0,2.69-4c.32-3-2.72-4.32-3.05-7.74-.31-3.2,2.07-4.69,1.44-7.55-.29-1.28-2.58-3.48-3.95-5a16.07,16.07,0,0,0-5.41-4.32C123,90.35,125.7,95.21,122.68,97.43Zm-24.27-.35c.29-.71,1.16-1.37,1.08-2.34-.27-3.15-4.95-1.27-6.11-.18s-1.55,3-3.24,3.06c-1.94.1-3.23-2.14-5.21-2.15a6.45,6.45,0,0,0-3.05,1.06c-3.19,2.09-5.42,6.19-7.36,9,5.19-1.35,5.7,6.73,8.61,7.19,1.51.24,2.73-1.19,4.14-1.07,3.2.24,3.67,4,6.65,5.56,2.25-2.49-1.71-5.86-1.62-8.81.08-2.19,1.9-3.93,5-3.23C97.63,101.7,97.47,99.5,98.41,97.08ZM39.83,107.51a66.57,66.57,0,0,0,8.08,30.41c1,1.79,3.66,6.47,5,6.84.82.21,2.42-.31,3.4-.36,2.72-.13,6.18.35,8.1-.37-.89-1.22-1.83-1.63-2.7-2.7-1.51-1.84-1.94-4.27-3.23-6.11-2.05-2.9-5.82-2.93-10.61-3.24-1.67-1.71-.67-3.37.55-5.4C50,124,51.3,120.93,54,120.28a58.13,58.13,0,0,1-2-12.77Zm17.79,12.24c2.23-.72,2.49-3.4,3.41-5.22a14.94,14.94,0,0,1,3.77-5c.75-.57,1.72-.26,2-1.62-3.31-.61-7.52-.28-11.34-.36C55.59,112.18,55.87,116.7,57.62,119.75Zm79.26-10.26c.11,3-.53,5-1.63,6.48-1.57,2.14-5.84,2.92-7,4.5-.92,1.23,3.63,3.45,3.6,5.59,0,1.41-1,2.18-2.7,3,1.12,1.35,2.39-.51,3.23-1.61a11.55,11.55,0,0,0,2.16-4c-4.75.54-1.43-6.53,2-3.25a33.19,33.19,0,0,0,2.86-12.22c-1.36-.15-2.3.4-3.4,0C136,108.84,136.79,108.81,136.88,109.49Zm5.75-1.26c-.32,6.4-2.21,11.22-4.32,15.83,2.14.87,5.7.31,6.83,2.16-.75,2.56-4.77,2.76-4.32,5.94-2.34-.51-5.32-.42-6.82-1.8-.43.71-1.14,1.14-1.44,2a38.93,38.93,0,0,0,4,4c.61.56,3.23,4,4,3.95.42,0,1.88-2.29,2.5-3.06a49,49,0,0,0,11.15-29A88.26,88.26,0,0,0,142.63,108.23Zm14.73,0c-.21,0-.2.28-.17.54a54.84,54.84,0,0,1-11.51,30.59c-.87,1.07-2.73,2.42-2.69,3.41s1.65,1.49,2,2.35c3.54-.7,7.62,0,11.14.35,7.51-9.21,12.67-21.75,13.31-37.24Zm-78.72,13c.36,2.68-.28,5,0,8.11,2.59-1.62,5.11-4.84,7.56-7.2-1.29-1.91-2.87-3.49-3.61-5.94-4-.77-4-5.57-6.64-7.73C72.24,112.86,78,116.18,78.64,121.18Zm-9.7-9.71c-.6.22-1.66-.09-2.71.37a6.28,6.28,0,0,0-2,2.15c-1.86,3-2.57,9.55-6.1,9.89-1.46.15-2.13-1.16-3.24-1.08-2.69.92-3.62,3.58-4.49,6.3,8.85.5,12,6.65,16,12.06,4.2.42,10.14.48,13.65,1.61,1,.33,2.08,1.32,3.23,1.09s1.81-1.88,1.81-2.53c-.06-4.4-8-3.25-9.18-7.19s.44-9.47-.71-14.21c-1-4.16-4.9-6.52-3.42-11C70.41,110.42,70.22,111,68.94,111.47Zm19.59,13.14c-2.43,2.37-4.81,4.79-7.19,7.2a32.79,32.79,0,0,0,17.79,8.81c-1.29-4.39,1.3-7.26,2.71-10.08A26.67,26.67,0,0,1,88.53,124.61Zm48.7,4.13a6.54,6.54,0,0,0,2,.36c.24-.22.1-.84.35-1.08C138.64,128.13,137.39,127.87,137.23,128.74Zm-16.53-.35c0,1.54,2.85,1.7,4.86,1.79C125.05,128.58,122.89,127.71,120.7,128.39Zm9,12.77c0,1.51.67,3.15.54,4.5-.22,2-1.78,3.06-2.69,4.3-.12,0-.22,0-.19.19a39.16,39.16,0,0,0,10.6-7.56C135.72,140.34,129.72,139,129.69,141.16Zm-45.48,5.4a24.57,24.57,0,0,1-5.75,0c-1.91-.34-3.26-2.7-5-2a61.5,61.5,0,0,0,7.89,5.21c1.62.78,2.23.44,4,.35a31.11,31.11,0,0,1,17.44,4.51,29.22,29.22,0,0,1,.18-4.86,9.25,9.25,0,0,1-3.43-5.93A35.52,35.52,0,0,1,89.07,141,6.17,6.17,0,0,1,84.21,146.56Zm-14.73-1.27c-.59-.12-.61-.83-1.25-.89,0,.34-.21.4-.19.72C68.51,145.08,69.25,145.68,69.48,145.29Zm69.9.55c.67,0,1.41.07,1.28-.72A1.53,1.53,0,0,0,139.38,145.84Zm-27.12.72c-2.39-.32-3.91,1.46-6.12,2.15.12,1.92-.24,4.32.19,5.94,2.84-2.55,7.53-3.24,12-4.14C116.47,149.45,114.87,146.89,112.26,146.56ZM54.2,149.43c-6.23.48-12.09,2.81-18.51,3.6-5.22.64-10.51-.08-16.17.72,1.55,3.69,5.45,5.66,8.62,7.93,9.9,7,20.83,13.56,33.25,17.63V166.7c-5.47-.68-13.89-3.54-19.58-4.5-2.05-.34-6.51-.46-4.14-3.59,8.08,1.51,15.39,3.79,23.72,5,.4-2-.5-4.71.72-6.13,3.44-1.22,7.51-1.83,9.7-4.31C68.05,149,61.28,148.88,54.2,149.43Zm93.45.18a14.24,14.24,0,0,0-10.77,4.32,26.65,26.65,0,0,0,4.3,2.34c1.75.71,3.95.82,5,1.61,1.65,1.22.45,4,1.08,6.49,5.19-1.13,12.45-2.32,18.35-3.78,1.93-.5,6.53-2.52,5.93,1.09-3.38,1.83-7.75,2.19-11.87,3s-8.5,1.77-12.59,2.51a117.5,117.5,0,0,0,0,12.59c12.52-3.86,23.28-10.43,33.09-17.08,3.23-2.2,7.2-4.16,8.8-8.1C173.56,155.6,161.35,150,147.65,149.61Zm-46,19.07c0-2.5.47-5.75-.16-7.74-.59-1.78-3.17-3.22-5.22-4.13-7.26-3.25-19.6-2.43-23.37,2.88.1,11.32-.12,22.3-.17,33.46,8.18-2,20.13-4.28,28.76-1.08C101.72,184.59,101.64,176.37,101.64,168.68Zm17.44-13.49c-4.21.33-11.15,2.55-12,6.29-.34,1.4.06,3.25,0,4.69-.31,8-.14,17.24-.18,25.9,8.83-2.95,20.47-.42,28.58,1.44.42-10.85.06-22.48.18-33.64C132.4,156.45,126.17,154.65,119.08,155.19Zm-52.29,6.65c-.07,10.1-.69,23.06,0,33.29,1.44-1.91.71-5,.71-7.74,0-8.47.47-17.91,0-26.09H67C66.94,161.54,66.73,161.55,66.79,161.84ZM141,195.67c.92-.07.83-1.63.89-2.16.47-4.74,0-10.53,0-16V165.45c0-1.12.45-2.74-.54-3.61H141C140.75,172.77,140.31,185.44,141,195.67ZM26.34,175c-.45,1.36,1.29,2.07,1.25,3.6A71.13,71.13,0,0,0,44.5,195.31c6.54,4.62,14.57,8.92,23.73,9.53,2.85.2,6.7.08,9-1.07-4.9.09-9.48-.12-14.21-.19-2.87-1.27-1.48-6.78-1.8-10.61-3.63-1.7-9.41-4-14-5.76-2.2-.83-6.55-1.83-3.6-4.49,5.87,2.35,11.69,4.73,17.61,7v-4.69C50.66,181.78,39.47,174.07,26.34,175Zm120.59,10.79v4.51c6.19-2,11.73-4.58,17.79-6.67,2.79,2.57-1.38,3.52-3.41,4.32-4.83,2-10.65,3.88-14.38,5.58-.55,3.82,1.3,9-1.42,10.43-1.08.58-2.47.23-3.79.19a58,58,0,0,0-10.95.36c14,3.12,24.95-3.2,33.59-9,6.76-4.51,12-10.42,16.36-15.83-.24-1.39,1.73-2.43,1.44-3.78C167,175.46,158.55,182.18,146.93,185.77Zm-56.25,9.36c-7.1-.48-13.89,1.62-18.68,3.05,8.68-.23,17.31.55,25.7,0C97.36,195.41,93.42,195.31,90.68,195.13Zm26.25.36c-2.68.19-6.06-.16-6.47,2.88,8.17.32,17.82.16,25.7.18C131.23,196.94,123.55,195,116.93,195.49Zm-13.66,2.88c.54-.11,1.54.22,1.79-.19-.7-.12-.27-1.39-1.07-1.43C103.87,197.42,103.32,197.63,103.27,198.37Zm-28.76,12c-6.73.56-14.05-1.5-19.59-3.41-.7.65-1.94,1.6-1.8,2.51,13.2,4.65,35.43,5,42.06-5.75H87.63A18.87,18.87,0,0,1,74.51,210.42Zm80.34-.36c-.78-3.57-3.93-1.66-6.65-.9a38.67,38.67,0,0,1-5,1.26c-9.48,1.3-19.09-.49-22.64-6.49H113C119.19,214.58,141.85,214.9,154.85,210.06Z"/><path class="cls-1" d="M95.54,23.49c-1.32-1.07-2-2.83-3.6-3.59a19.65,19.65,0,0,0-4.85.72c-.16,2.1.58,4.79,1.08,6.84,2.9.27,2.71-2.57,3.59-4.33a30.85,30.85,0,0,1,1.62,8.28c-1.42-1.08-1.81-4-4.85-2.88,0,2.58.83,4.32,1.08,6.66a5.84,5.84,0,0,0,6.46-2.34c.78-1.06.59-2.75,2-3.24v5.22a67.6,67.6,0,0,1-14.38,2.53c2.66-1.08,1.15-5,.53-8.65a53.72,53.72,0,0,0-1.44-6.65c-.42-.72-1.94-.33-2.15-1.26,4.61-1,9.42-1.72,14-2.69C94.84,20,95.38,21.56,95.54,23.49Z"/><path class="cls-1" d="M123.41,20.44c.84.08.45-1.09,1.41-.9a17.25,17.25,0,0,1-.89,5.57c-1.23-1.82-1.64-5.69-5-5.39-2.69.24-3,3.18-1.06,5,1.64,1.55,5.37,2.57,5.91,5.4,1.3,6.59-6.45,8-10.95,4.67-.86-.13-.32,1.13-1.25.91-.05-1.74.1-4.8,1.07-6.12.92-.08.41,1.26.54,2,.4,2.29,3.87,5.7,6.47,3.6a3.38,3.38,0,0,0,.9-3.06c-.59-2.36-6.48-3.46-7-7.55C112.75,18.64,119.63,17.28,123.41,20.44Z"/><path class="cls-1" d="M108.47,26.2c1.23,5.74-6.59,5.57-6.28.9C102.4,23.88,107.12,23.2,108.47,26.2Z"/><path class="cls-1" d="M156.47,34.65a12.55,12.55,0,0,1-2.88,4.15c.79-2.47.21-5.41-1.8-6.13a56.71,56.71,0,0,0-7.73,12.6c0,.93.87,1,.9,2-1.18-.13-2.48-1.22-3.78-2S138.34,44,138,42.92c.14-.88.82.38,1.62,0,3.6-3.33,5.46-8.43,8.26-12.58-2-2.17-5.09-.31-6.65,1.07.43-2,1.56-3.25,2.52-4.67C148.06,29.29,152.33,31.9,156.47,34.65Z"/><path class="cls-1" d="M131,29.08c4.79-.92,4.66,6.2.72,6.29C128.13,35.45,127,29.84,131,29.08Z"/><path class="cls-1" d="M74.33,36.09c-1.32-1.25-2-1.94-2-3.42.15-3.45,5.8-3.64,6.46-.54C79.3,34.38,77.52,36.79,74.33,36.09Z"/><path class="cls-1" d="M72.53,41.66c-.11,1.22-2,1.87-3.22,2.71s-2.51,2.28-3.6,1.8c.31-.76,1.22-.94,1.43-1.8-.54-1.19-1.85-1.63-2.88-2.35-1.69.76-2.91,2-4.67,2.71a5.62,5.62,0,0,0,.91,3.59c1,.3,1.11-.13,2.14-.18a7,7,0,0,1-4.3,3.06c-.2-.78.6-.59.54-1.26-.53-6.08-2.18-12-2.71-17.44,1.15-.59,2.83,1.23,4.14,2.15,3.51,2.46,7.35,5,10.61,7.2A2.11,2.11,0,0,0,72.53,41.66Zm-13.12,2c1.27-.72,2.18-1.79,3.59-2.35a23.81,23.81,0,0,0-5-3.58C58.5,39.65,58.63,42,59.41,43.65Z"/><path class="cls-1" d="M160.23,46.17c1.74,6.08-6.14,6.22-6.1,1.62C154.14,44.61,158.56,43.56,160.23,46.17Z"/><path class="cls-1" d="M122.49,46.53c1.37,1.6-.47,3.06-1.08,4.31-3.53.72-5.93-1.1-8.8-1.62a15.77,15.77,0,0,1-.18-3.59C115.54,43.62,119.52,46.73,122.49,46.53Zm-6.28,1.26c.36-.52,1.12.06,1.62,0C118.06,45.93,115.47,46.22,116.21,47.79Z"/><path class="cls-1" d="M178.75,58.4c-1.12,1.23-2.82,2.8-4.31,3.06.6-1.36,1.58-2.19,1.62-3.78,0-2.14-1.57-3.71-2.7-4.86-2,1.1-3.66,2.57-5.57,3.78.78,2.39,3.61,2.14,5.57,1.26-1.63,2.33-4.74,4.13-6.83,5.4,0-1.34,2.47-3.83.55-5.58a25.55,25.55,0,0,0-5.58,4c.67,3.71,4.18,5.12,8.44,4.68-.27,1.31-3,1.69-4.3,2.52a68.71,68.71,0,0,1-8.82-11.7c2.55,2,6.14-2,8.28-3.6s4.66-2.87,5.38-4.86c0-.45-.76-1.14-.35-1.44s.35.09.72.19C173.34,51.24,176.34,54.51,178.75,58.4Z"/><path class="cls-1" d="M48.63,47.43a3.23,3.23,0,0,1,3,1.07c2.79,4.58-5.24,7.62-5.92,2.7C45.41,48.8,46.72,47.69,48.63,47.43Z"/><path class="cls-1" d="M36.59,49.77c.52.24-.16,1.52,0,2.15.41,1.75,3.72,3.29,5.57,4.68,1.14.86,4.5,4.19,6.11,4.14.91,0,1.2-1.08,2-1.08-.16,1.38-1.47,2.58-2.34,3.79s-1.69,2.77-3,3.4c0-.85.57-1.09.52-2-2.93-3.54-7.32-5.6-10.77-8.62-1.68-.38-2.09.54-3.06.89C32.39,54.65,35.06,52.26,36.59,49.77Z"/><path class="cls-1" d="M106,105c1.69,2.47-2.28,4-2.88,1.79C102.67,105.26,104.22,104,106,105Z"/><path class="cls-2" d="M250.25,139.17h-13V34.94h13Z"/><path class="cls-2" d="M298.31,113.05l-11.89,26.11H272.48L322.2,30.51l49.71,108.65H358l-11.89-26.11ZM322.2,59l-18.51,42.17h37Z"/><path class="cls-2" d="M394.43,34.94h55.94V46.82H407.42V76h41.71V87.88H407.42v39.41h42.95v11.88H394.43Z"/><path class="cls-2" d="M526.48,54.71c-3.88-6.49-8.84-9.82-16.72-9.82-8.28,0-17.4,5.67-17.4,14.78,0,8.18,8,12.46,14.5,14.94l7.46,2.9c14.77,5.81,25.82,14,25.82,31.38,0,19-14.64,32.49-33.28,32.49-16.84,0-30-12.43-32.18-29.17l13.12-2.76c-.13,11.47,9,19.78,20.17,19.78s19.19-9.42,19.19-20.34c0-11.19-9-16-17.95-19.76l-7.17-3c-11.89-5.12-22.67-11.9-22.67-26.42,0-16.86,14.92-26.95,30.68-26.95,11.59,0,21.11,5.68,26.79,15.77Z"/><path class="cls-2" d="M596.23,139.17h-13V46.82H558.51V34.94H621V46.82H596.23Z"/><path class="cls-2" d="M645,34.94h55.93V46.82H658V76h41.71V87.88H658v39.41h42.94v11.88H645Z"/><g class="cls-3"><text class="cls-4" transform="translate(403.04 194.56)">IRAN</text></g></g></g></svg>