<svg xmlns="http://www.w3.org/2000/svg" width="13" height="12" viewBox="0 0 13 12">
  <g id="_2639759_about_icon" data-name="2639759_about_icon" transform="translate(-2 -3)">
    <path id="Path_5355" data-name="Path 5355" d="M3.158,23.567A2.337,2.337,0,0,0,4.079,21l3.5,1a7.262,7.262,0,0,1-4.208,1.995Z" transform="translate(-0.579 -9)" fill="#fff"/>
    <ellipse id="Ellipse_16" data-name="Ellipse 16" cx="0.5" rx="0.5" transform="translate(2 15)" fill="#fff"/>
    <path id="Path_5356" data-name="Path 5356" d="M8.5,3C4.91,3,2,5.463,2,8.5S4.91,14,8.5,14,15,11.538,15,8.5,12.09,3,8.5,3ZM9,11.5H8V8H9ZM8.5,6.75A.75.75,0,1,1,9.25,6,.75.75,0,0,1,8.5,6.75Z" fill="#fff"/>
  </g>
</svg>
