<svg xmlns="http://www.w3.org/2000/svg" width="25.525" height="24.102" viewBox="0 0 25.525 24.102">
  <g id="Group_3156" data-name="Group 3156" transform="translate(-46.613 -36.769)">
    <path id="Path_4874" data-name="Path 4874" d="M85.613,41.025h.643c.316,0,.582-.143.582-.313V38.96a.389.389,0,0,1,.383-.383h5.608a.389.389,0,0,1,.383.383v1.771c0,.157.272.294.582.294h.644c.31,0,.582-.137.582-.294V38.96a2.193,2.193,0,0,0-2.191-2.191H87.221a2.193,2.193,0,0,0-2.19,2.191v1.724C85.031,40.869,85.3,41.025,85.613,41.025Z" transform="translate(-30.65 0)" fill="#fff"/>
    <path id="Rectangle_2349" data-name="Rectangle 2349" d="M.913,0H2.024a.913.913,0,0,1,.913.913v0a.912.912,0,0,1-.912.912H.913A.913.913,0,0,1,0,.913v0A.913.913,0,0,1,.913,0Z" transform="translate(57.907 51.627)" fill="#fff"/>
    <path id="Rectangle_2350" data-name="Rectangle 2350" d="M1.018,0h.9A1.019,1.019,0,0,1,2.937,1.019v0A1.018,1.018,0,0,1,1.918,2.037h-.9A1.019,1.019,0,0,1,0,1.018v0A1.018,1.018,0,0,1,1.018,0Z" transform="translate(57.907 54.458)" fill="#fff"/>
    <path id="Path_4875" data-name="Path 4875" d="M72.58,106.829c-.149.058-.28.107-.4.151a31.367,31.367,0,0,1-8.644,1.778v1.129a1.752,1.752,0,0,1-1.7,1.793H60.708a1.752,1.752,0,0,1-1.7-1.793v-1.13a31.086,31.086,0,0,1-9.265-2.011c-.082-.025-.232-.086-.595-.239l-.047-.02-.06-.025v7.356a1.434,1.434,0,0,0,1.394,1.468H72.107a1.434,1.434,0,0,0,1.394-1.468v-7.365l-.311.131Z" transform="translate(-1.894 -54.416)" fill="#fff"/>
    <path id="Path_4876" data-name="Path 4876" d="M70.784,61.247H47.968a1.392,1.392,0,0,0-1.355,1.424v6.364a.6.6,0,0,0,.273.44s.25.115.65.282a30.483,30.483,0,0,0,9.574,2.2v-1.07c0-.709,1.019-1.193,1.7-1.193h1.126c.795,0,1.7.548,1.683,1.381v.882a30.722,30.722,0,0,0,8.371-1.721c.823-.3,1.864-.764,1.874-.768a.577.577,0,0,0,.271-.43V62.671A1.393,1.393,0,0,0,70.784,61.247Z" transform="translate(0 -19.115)" fill="#fff"/>
  </g>
</svg>
