<svg xmlns="http://www.w3.org/2000/svg" width="10.376" height="10.658" viewBox="0 0 10.376 10.658">
  <path id="_928412_call_communication_contact_phone_service_icon" data-name="928412_call_communication_contact_phone_service_icon" d="M20.873,21.919a8.689,8.689,0,0,0,1.8-2.206l.233-.451c-.082-.09-.7-.773-.974-1.144a.674.674,0,0,1,.153-.886s1.383-1.418,1.7-1.7a.665.665,0,0,1,.678-.125,2.607,2.607,0,0,1,1.39,2.655c0,1.717-1.27,3.489-2.646,4.86-1.378,1.549-3.269,3.1-5.1,3.1a2.526,2.526,0,0,1-2.59-1.425.71.71,0,0,1,.122-.695c.275-.323,1.658-1.741,1.658-1.741s.41-.5.864-.156c.339.259.946.836,1.093.976A12.087,12.087,0,0,0,20.873,21.919Z" transform="translate(-15.476 -15.364)" fill="#fff"/>
</svg>
