<svg id="Page-1" xmlns="http://www.w3.org/2000/svg" width="12.732" height="9.635" viewBox="0 0 12.732 9.635">
  <g id="Artboard-Copy" transform="translate(0 0)">
    <path id="quote2" d="M424.6,24.595a1.934,1.934,0,0,0-.446-.733,2.2,2.2,0,0,0-.864-.54,4.151,4.151,0,0,0-1.382-.193h-.768a4.174,4.174,0,0,1,1.01-2.414,7.552,7.552,0,0,1,2.417-1.746L423.943,18a9.414,9.414,0,0,0-3.481,2.539,5.124,5.124,0,0,0-1.444,3.322,4.183,4.183,0,0,0,.84,2.773,2.972,2.972,0,0,0,2.41,1A2.5,2.5,0,0,0,424,26.972a2.029,2.029,0,0,0,.735-1.548,2.65,2.65,0,0,0-.13-.829m-7.018,0a1.94,1.94,0,0,0-.447-.733,2.188,2.188,0,0,0-.864-.54,4.144,4.144,0,0,0-1.382-.193h-.768a4.178,4.178,0,0,1,1.01-2.414,7.565,7.565,0,0,1,2.418-1.746L416.925,18a9.414,9.414,0,0,0-3.481,2.539A5.123,5.123,0,0,0,412,23.862a4.181,4.181,0,0,0,.839,2.773,2.97,2.97,0,0,0,2.41,1,2.5,2.5,0,0,0,1.729-.663,2.029,2.029,0,0,0,.734-1.548,2.678,2.678,0,0,0-.13-.829" transform="translate(-412 -18.001)" fill="#fff" fill-rule="evenodd"/>
  </g>
</svg>
