<svg xmlns="http://www.w3.org/2000/svg" width="30.97" height="30.666" viewBox="0 0 30.97 30.666">
  <g id="FCFS_Offers" data-name="FCFS Offers" transform="translate(-760.72 -230.9)">
    <g id="_1919_Clock_Deadline_Management_Optimization_Person" data-name="1919, Clock, Deadline, Management, Optimization, Person" transform="translate(760.72 230.9)">
      <g id="Group_3337" data-name="Group 3337">
        <path id="Path_5378" data-name="Path 5378" d="M768.83,242.865a3.853,3.853,0,1,0-4.664,0,5.758,5.758,0,0,0-3.447,5.261v5.111a.667.667,0,0,0,.659.651h1.876v7.666a.659.659,0,0,0,1.318,0V251.333a.659.659,0,0,0-1.318,0v1.253h-1.267v-4.46a4.511,4.511,0,0,1,9.022,0v4.46h-1.267v-1.253a.659.659,0,0,0-1.318,0v10.222a.659.659,0,0,0,1.318,0v-7.666h1.926a.667.667,0,0,0,.659-.651v-5.111A5.8,5.8,0,0,0,768.83,242.865Zm-4.917-3.006a2.585,2.585,0,1,1,2.585,2.555A2.581,2.581,0,0,1,763.913,239.858Z" transform="translate(-760.72 -233.445)" fill="#fff"/>
        <path id="Path_5379" data-name="Path 5379" d="M771.6,275.5a.667.667,0,0,0-.658.651v5.111a.659.659,0,0,0,1.317,0v-5.111A.667.667,0,0,0,771.6,275.5Z" transform="translate(-765.818 -253.152)" fill="#fff"/>
        <rect id="Rectangle_2431" data-name="Rectangle 2431" width="1.267" height="1.253" transform="translate(5.12 14.08)" fill="#fff"/>
        <path id="Path_5380" data-name="Path 5380" d="M803.845,256.555V252a6.412,6.412,0,0,0-3.649-5.762,6.357,6.357,0,0,0,3.649-5.762v-4.56a2.544,2.544,0,0,0-.659-5.011H791.529a2.581,2.581,0,0,0-2.586,2.555,2.49,2.49,0,0,0,1.927,2.455v4.56a6.412,6.412,0,0,0,3.649,5.762A6.357,6.357,0,0,0,790.87,252v4.56a2.5,2.5,0,0,0-1.876,2.455,2.581,2.581,0,0,0,2.585,2.555h11.607a2.581,2.581,0,0,0,2.585-2.555A2.49,2.49,0,0,0,803.845,256.555Zm-11.659-20.544h10.341v2.155c-1.064.451-3.143,1.052-4.207.5-1.825-.952-5.272-.3-6.134-.1Zm-1.926-2.555a1.248,1.248,0,0,1,1.267-1.253h11.658a1.253,1.253,0,1,1,0,2.505H791.529A1.218,1.218,0,0,1,790.261,233.455Zm1.926,7.015v-.651h.152c1.065-.251,4.055-.752,5.373-.05,1.368.752,3.4.3,4.815-.251v.952a5.171,5.171,0,0,1-10.341,0Zm0,11.525a5.171,5.171,0,0,1,10.341,0v4.46H800.6v-1.9a3.244,3.244,0,0,0-6.488,0v1.9h-1.927V252Zm7.1,4.46h-3.852v-1.9a1.926,1.926,0,0,1,3.852,0Zm3.9,3.808H791.529a1.253,1.253,0,1,1,0-2.505h11.607a1.248,1.248,0,0,1,1.267,1.253A1.177,1.177,0,0,1,803.187,260.263Z" transform="translate(-774.801 -230.9)" fill="#fff"/>
      </g>
    </g>
  </g>
</svg>
