<svg xmlns="http://www.w3.org/2000/svg" width="13.336" height="12.592" viewBox="0 0 13.336 12.592">
  <g id="Group_3156" data-name="Group 3156" transform="translate(-46.613 -36.769)">
    <path id="Path_4874" data-name="Path 4874" d="M85.335,38.993h.336c.165,0,.3-.075.3-.164v-.915a.2.2,0,0,1,.2-.2h2.93a.2.2,0,0,1,.2.2v.925c0,.082.142.154.3.154h.336c.162,0,.3-.072.3-.154v-.925a1.146,1.146,0,0,0-1.145-1.145h-2.93a1.146,1.146,0,0,0-1.144,1.145v.9C85.031,38.911,85.17,38.993,85.335,38.993Z" transform="translate(-34.359 0)" fill="#fff"/>
    <path id="Rectangle_2349" data-name="Rectangle 2349" d="M.477,0h.581a.477.477,0,0,1,.477.477v0a.477.477,0,0,1-.477.477H.477A.477.477,0,0,1,0,.477v0A.477.477,0,0,1,.477,0Z" transform="translate(52.514 44.532)" fill="#fff"/>
    <path id="Rectangle_2350" data-name="Rectangle 2350" d="M.532,0H1a.532.532,0,0,1,.532.532v0A.532.532,0,0,1,1,1.064H.532A.532.532,0,0,1,0,.532v0A.532.532,0,0,1,.532,0Z" transform="translate(52.514 46.011)" fill="#fff"/>
    <path id="Path_4875" data-name="Path 4875" d="M61.338,106.65c-.078.03-.146.056-.21.079a16.388,16.388,0,0,1-4.516.929v.59a.915.915,0,0,1-.89.937h-.587a.915.915,0,0,1-.89-.937v-.59a16.242,16.242,0,0,1-4.84-1.051c-.043-.013-.121-.045-.311-.125l-.024-.01-.032-.013V110.3a.749.749,0,0,0,.728.767H61.091a.749.749,0,0,0,.728-.767v-3.848l-.163.068Z" transform="translate(-2.148 -61.707)" fill="#fff"/>
    <path id="Path_4876" data-name="Path 4876" d="M59.241,61.247H47.321a.727.727,0,0,0-.708.744v3.325a.312.312,0,0,0,.142.23s.131.06.34.148a15.926,15.926,0,0,0,5,1.148v-.559c0-.371.532-.623.89-.623h.588c.415,0,.889.286.879.722v.461a16.051,16.051,0,0,0,4.374-.9c.43-.156.974-.4.979-.4a.3.3,0,0,0,.141-.225V61.991A.728.728,0,0,0,59.241,61.247Z" transform="translate(0 -21.676)" fill="#fff"/>
  </g>
</svg>
