<svg xmlns="http://www.w3.org/2000/svg" width="36.74" height="35.488" viewBox="0 0 36.74 35.488">
  <g id="Local_Committee" data-name="Local Committee" transform="translate(-502.83 -289.188)">
    <path id="Path_5465" data-name="Path 5465" d="M599.137,309.542h-6.765v4.281h6.765Zm-1.876.572-1.507,1.2-1.506-1.2Zm1.3,3.138h-5.621v-3.138h.388l2.423,1.935,2.423-1.935h.388Z" transform="translate(-63.947 -14.536)" fill="#fff"/>
    <path id="Path_5466" data-name="Path 5466" d="M559.834,380.7a4.706,4.706,0,0,0,1.362,2.861.5.5,0,0,0,.348.144.485.485,0,0,0,.149-.023.493.493,0,0,0,.337-.385,1.5,1.5,0,0,1,1.479-1.245h2.464a1.493,1.493,0,0,1,1.4.963.494.494,0,0,0,.847.129,4.71,4.71,0,0,0-3.21-7.619c-.167-.017-.33-.025-.483-.025a4.719,4.719,0,0,0-4.693,5.2Zm4.693.638a1.786,1.786,0,1,1,1.786-1.786A1.789,1.789,0,0,1,564.527,381.337Zm-2.765-3.623a3.735,3.735,0,0,1,2.765-1.228c.121,0,.25.007.386.02a3.723,3.723,0,0,1,2.933,5.405,2.464,2.464,0,0,0-1.535-.823,2.358,2.358,0,1,0-3.5.077,2.482,2.482,0,0,0-1.42,1.078,3.734,3.734,0,0,1,.37-4.529Z" transform="translate(-40.692 -61.639)" fill="#fff"/>
    <path id="Path_5467" data-name="Path 5467" d="M510.479,324.439a.494.494,0,0,0,.841-.351v-.434a2.988,2.988,0,0,1,2.655-2.972l.017,0a3.082,3.082,0,0,1,.321-.018h4.3a3,3,0,0,1,2.993,2.993v.434a.494.494,0,0,0,.841.351,8.518,8.518,0,1,0-11.964,0Zm6.436-4.766H516a3.281,3.281,0,1,1,.911,0Zm-.455-8.817a7.537,7.537,0,0,1,7.529,7.529,7.457,7.457,0,0,1-1.48,4.477,3.989,3.989,0,0,0-3.518-3.169,4.138,4.138,0,1,0-5.062,0l-.039,0a.456.456,0,0,0-.06.007,3.976,3.976,0,0,0-3.421,3.158,7.459,7.459,0,0,1-1.48-4.477A7.538,7.538,0,0,1,516.46,310.856Z" transform="translate(-3.652 -14.769)" fill="#fff"/>
    <path id="Path_5468" data-name="Path 5468" d="M588.261,306.788a6.382,6.382,0,1,0-6.381-6.382A6.389,6.389,0,0,0,588.261,306.788Zm0-11.775a5.394,5.394,0,1,1-5.393,5.394A5.4,5.4,0,0,1,588.261,295.013Z" transform="translate(-56.454 -3.454)" fill="#fff"/>
    <path id="Path_5469" data-name="Path 5469" d="M502.83,303.616a9.966,9.966,0,0,0,14.272,9l1.951,2.171a6.1,6.1,0,0,0,4.163,9.856c.2.02.41.03.619.03a6.1,6.1,0,1,0-2.97-11.417l-1.739-1.935a10.018,10.018,0,0,0,3.664-7.708,9.9,9.9,0,0,0-.285-2.347l2.366-.837a7.759,7.759,0,1,0-.827-3.48,7.638,7.638,0,0,0,.1,1.223l-2.473.874a9.972,9.972,0,0,0-18.84,4.567Zm9.979-8.991a9.028,9.028,0,0,1,8.163,5.244.494.494,0,0,0,.613.259l3.287-1.162a.494.494,0,0,0,.318-.571,6.771,6.771,0,1,1,.392,1.227.494.494,0,0,0-.618-.271l-3.219,1.138a.494.494,0,0,0-.309.6,8.935,8.935,0,0,1-3.323,9.768.494.494,0,0,0-.076.728l2.366,2.631a.493.493,0,0,0,.636.084,5.18,5.18,0,0,1,3.317-.815,5.112,5.112,0,0,1-.521,10.2c-.177,0-.352-.009-.521-.025a5.112,5.112,0,0,1-3.287-8.5c.014-.013.045-.043.057-.058a.494.494,0,0,0,0-.655l-2.494-2.776a.494.494,0,0,0-.6-.107,8.86,8.86,0,0,1-4.177,1.038,8.992,8.992,0,0,1,0-17.984Z" transform="translate(0)" fill="#fff"/>
  </g>
</svg>
