<svg xmlns="http://www.w3.org/2000/svg" width="36.342" height="35.807" viewBox="0 0 36.342 35.807">
  <g id="Marketing_Graphic_Design_team" data-name="Marketing &amp; Graphic Design team" transform="translate(-1270.662 -358.715)">
    <g id="_1909_Internet_Marketing_Media_Network_Seo" data-name="1909, Internet, Marketing, Media, Network, Seo" transform="translate(1270.662 357)">
      <g id="_117_Chat_Community_Media_Network_Promotion" data-name="117, Chat, Community, Media, Network, Promotion" transform="translate(-945.977 -488.785)">
        <g id="Group_3538" data-name="Group 3538" transform="translate(945.977 490.5)">
          <g id="Group_3530" data-name="Group 3530" transform="translate(6.097 29.779)">
            <path id="Path_5475" data-name="Path 5475" d="M977.384,546.427H958.428a2.216,2.216,0,0,1-2.234-2.208v-3.044a.8.8,0,0,1,.785-.776h21.853a.8.8,0,0,1,.785.776v3.044A2.216,2.216,0,0,1,977.384,546.427Zm-19.68-4.476v2.268a.729.729,0,0,0,.724.716h18.956a.73.73,0,0,0,.724-.716v-2.268Z" transform="translate(-956.194 -540.4)" fill="#fff"/>
          </g>
          <g id="Group_3531" data-name="Group 3531" transform="translate(6.097)">
            <path id="Path_5476" data-name="Path 5476" d="M978.833,496.468H956.979a.8.8,0,0,1-.785-.776v-2.984a2.255,2.255,0,0,1,2.234-2.208h18.9a2.255,2.255,0,0,1,2.233,2.208v2.984A.708.708,0,0,1,978.833,496.468ZM957.7,494.976h20.4v-2.268a.694.694,0,0,0-.724-.716H958.428a.693.693,0,0,0-.724.716Z" transform="translate(-956.194 -490.5)" fill="#fff"/>
          </g>
          <path id="Path_5477" data-name="Path 5477" d="M975.39,545.752h0a.8.8,0,0,1-.785-.776h0a.8.8,0,0,1,.785-.776h0a.794.794,0,0,1,.784.776h0A.794.794,0,0,1,975.39,545.752Z" transform="translate(-957.52 -512.153)" fill="#fff"/>
          <path id="Path_5478" data-name="Path 5478" d="M975.39,495.752h0a.8.8,0,0,1-.785-.776h0a.8.8,0,0,1,.785-.776h0a.794.794,0,0,1,.784.776h0A.794.794,0,0,1,975.39,495.752Z" transform="translate(-957.52 -491.992)" fill="#fff"/>
          <g id="Group_3532" data-name="Group 3532" transform="translate(6.097 4.416)">
            <path id="Path_5479" data-name="Path 5479" d="M978.833,524.815H956.979a.8.8,0,0,1-.785-.776V513.894a.675.675,0,0,1,.181-.477l2.475-2.685a.66.66,0,0,1,.544-.239h4.286v-7.281h-6.7a.8.8,0,0,1-.785-.776v-3.76a.8.8,0,0,1,.785-.776h21.853a.8.8,0,0,1,.785.776V508.4a.8.8,0,0,1-.785.776H972.8v7.281h4.286a.77.77,0,0,1,.544.239l1.75,1.91a.671.671,0,0,1,.181.477v4.953A.708.708,0,0,1,978.833,524.815ZM957.7,523.323h20.4v-3.939l-1.328-1.492h-4.709a.8.8,0,0,1-.785-.776V508.4a.8.8,0,0,1,.785-.776h6.037v-8.176H957.7v2.268h6.761a.794.794,0,0,1,.784.776v8.773a.794.794,0,0,1-.784.776h-4.709l-2.052,2.148Z" transform="translate(-956.194 -497.9)" fill="#fff"/>
          </g>
          <g id="Group_3533" data-name="Group 3533" transform="translate(0 8.176)">
            <path id="Path_5480" data-name="Path 5480" d="M951.169,519h-.181a.71.71,0,0,1-.544-.537l-.966-3.939h-2.717a.8.8,0,0,1-.785-.776v-8.773a.8.8,0,0,1,.785-.776h13.522a.8.8,0,0,1,.785.776v8.773a.8.8,0,0,1-.785.776h-4.709l-3.8,4.237A1.075,1.075,0,0,1,951.169,519Zm-3.622-6.027h2.536a.715.715,0,0,1,.724.6l.785,3.163,3.139-3.461a.66.66,0,0,1,.544-.239h4.286v-7.281H947.547Z" transform="translate(-945.977 -504.2)" fill="#fff"/>
          </g>
          <g id="Group_3534" data-name="Group 3534" transform="translate(21.19 14.144)">
            <path id="Path_5481" data-name="Path 5481" d="M991.385,529a.591.591,0,0,1-.543-.239l-3.864-4.3h-4.708a.8.8,0,0,1-.785-.776v-8.713a.8.8,0,0,1,.785-.776h13.584a.794.794,0,0,1,.784.776v8.773a.794.794,0,0,1-.784.776h-2.717l-1.026,3.879a.71.71,0,0,1-.543.537A.224.224,0,0,1,991.385,529Zm-8.391-6.027h4.285a.769.769,0,0,1,.544.239l3.139,3.461.785-3.163a.714.714,0,0,1,.724-.6h2.6v-7.161H982.994Z" transform="translate(-981.484 -514.2)" fill="#fff"/>
          </g>
          <g id="Group_3535" data-name="Group 3535" transform="translate(4.301 10.563)">
            <path id="Path_5482" data-name="Path 5482" d="M955.041,514.048a.913.913,0,0,1-.664-.239,1.188,1.188,0,0,1-.483-1.134l.121-.656-.483-.477a1.233,1.233,0,0,1-.3-1.194,1.1,1.1,0,0,1,.966-.776l.664-.119.3-.6a1.117,1.117,0,0,1,1.027-.656h0a1.116,1.116,0,0,1,1.026.656l.3.6.664.119a1.27,1.27,0,0,1,.966.776,1.233,1.233,0,0,1-.3,1.194l-.544.537.121.656a1.191,1.191,0,0,1-.483,1.134,1.111,1.111,0,0,1-1.207.06l-.6-.3-.6.3A1.145,1.145,0,0,1,955.041,514.048Zm1.147-1.969a1.782,1.782,0,0,1,.543.119l.121.06v-.119a1.088,1.088,0,0,1,.362-1.015l.121-.119h-.121a1.263,1.263,0,0,1-.905-.656l-.06-.119-.06.119a1.161,1.161,0,0,1-.906.656h-.121l.121.119a1.088,1.088,0,0,1,.363,1.015v.119l.121-.06C955.766,512.139,956.007,512.079,956.188,512.079Zm1.388-2.387Z" transform="translate(-953.184 -508.2)" fill="#fff"/>
          </g>
          <g id="Group_3536" data-name="Group 3536" transform="translate(25.657 17.128)">
            <path id="Path_5483" data-name="Path 5483" d="M993.558,520.752h-3.8a.776.776,0,1,1,0-1.552h3.8a.776.776,0,1,1,0,1.552Z" transform="translate(-988.97 -519.2)" fill="#fff"/>
          </g>
          <g id="Group_3537" data-name="Group 3537" transform="translate(25.657 20.111)">
            <path id="Path_5484" data-name="Path 5484" d="M995.067,525.752h-5.312a.776.776,0,1,1,0-1.552h5.313a.776.776,0,1,1,0,1.552Z" transform="translate(-988.97 -524.2)" fill="#fff"/>
          </g>
        </g>
      </g>
    </g>
  </g>
</svg>
