<svg xmlns="http://www.w3.org/2000/svg" width="36.154" height="35.768" viewBox="0 0 36.154 35.768">
  <g id="Outgoing_Students" data-name="Outgoing Students" transform="translate(-1231.649 -483.523)">
    <g id="Group_3553" data-name="Group 3553" transform="translate(1231.649 483.523)">
      <g id="Group_3544" data-name="Group 3544" transform="translate(4.494 4.471)">
        <path id="Path_5486" data-name="Path 5486" d="M1252.756,517.849a13.414,13.414,0,1,1,13.569-13.413A13.512,13.512,0,0,1,1252.756,517.849Zm0-25.336a11.923,11.923,0,1,0,12.06,11.923A12.028,12.028,0,0,0,1252.756,492.513Z" transform="translate(-1239.187 -491.023)" fill="#fff"/>
      </g>
      <g id="Group_3545" data-name="Group 3545" transform="translate(11.248 17.824)">
        <path id="Path_5487" data-name="Path 5487" d="M1263.362,520.934H1251.3a.794.794,0,0,1-.784-.775,6.815,6.815,0,0,1,13.629,0A.794.794,0,0,1,1263.362,520.934Zm-11.277-1.49h10.432a5.3,5.3,0,0,0-5.246-4.471A5.243,5.243,0,0,0,1252.085,519.444Z" transform="translate(-1250.517 -513.423)" fill="#fff"/>
      </g>
      <g id="Group_3546" data-name="Group 3546" transform="translate(14.263 9.657)">
        <path id="Path_5488" data-name="Path 5488" d="M1259.374,507.234a3.8,3.8,0,0,1-3.8-3.756,3.8,3.8,0,0,1,7.6,0A3.8,3.8,0,0,1,1259.374,507.234Zm0-5.961a2.265,2.265,0,1,0,2.292,2.265A2.278,2.278,0,0,0,1259.374,501.273Z" transform="translate(-1255.575 -499.723)" fill="#fff"/>
      </g>
      <g id="Group_3547" data-name="Group 3547" transform="translate(0.031)">
        <path id="Path_5489" data-name="Path 5489" d="M1235.44,511.839a.744.744,0,0,1-.6-.3,17.828,17.828,0,0,1-3.136-10.134,17.62,17.62,0,0,1,5.307-12.638,18.032,18.032,0,0,1,12.785-5.246.749.749,0,1,1-.06,1.49,16.48,16.48,0,0,0-16.584,16.394,15.786,15.786,0,0,0,1.99,7.75l.3-1.252a.715.715,0,0,1,.9-.536.705.705,0,0,1,.543.894l-.724,2.981a.7.7,0,0,1-.6.536C1235.5,511.839,1235.5,511.839,1235.44,511.839Z" transform="translate(-1231.701 -483.523)" fill="#fff"/>
      </g>
      <g id="Group_3548" data-name="Group 3548" transform="translate(0 26.14)">
        <path id="Path_5490" data-name="Path 5490" d="M1235.419,529.548h-.181l-3.015-.715a.706.706,0,0,1-.543-.894.715.715,0,0,1,.9-.536l3.015.715a.705.705,0,0,1,.542.894A.778.778,0,0,1,1235.419,529.548Z" transform="translate(-1231.649 -527.372)" fill="#fff"/>
      </g>
      <g id="Group_3549" data-name="Group 3549" transform="translate(17.278 4.814)">
        <path id="Path_5491" data-name="Path 5491" d="M1261.417,522.552a.775.775,0,1,1,0-1.55,16.321,16.321,0,0,0,11.518-28.138.716.716,0,0,1-.12-.894.815.815,0,0,1,.844-.358l3.8,1.133a.732.732,0,0,1,.483.954.744.744,0,0,1-.965.477l-1.206-.358a16.763,16.763,0,0,1,2.231,3.756,18.045,18.045,0,0,1,1.508,7.094,17.618,17.618,0,0,1-5.307,12.638A18.029,18.029,0,0,1,1261.417,522.552Z" transform="translate(-1260.633 -491.598)" fill="#fff"/>
      </g>
      <g id="Group_3550" data-name="Group 3550" transform="translate(29.339 4.769)">
        <path id="Path_5492" data-name="Path 5492" d="M1281.648,496.471a.793.793,0,0,1-.783-.775v-3.4a.784.784,0,0,1,1.568,0v3.4A.794.794,0,0,1,1281.648,496.471Z" transform="translate(-1280.865 -491.523)" fill="#fff"/>
      </g>
      <g id="Group_3551" data-name="Group 3551" transform="translate(2.986 29.762)">
        <path id="Path_5493" data-name="Path 5493" d="M1248,537.248h-10.553a.783.783,0,0,1-.723-.477.731.731,0,0,1,.181-.835l2.292-2.265a.771.771,0,0,1,1.086,0,.749.749,0,0,1,0,1.073l-.965.954h8.744a.794.794,0,0,1,.785.775A.9.9,0,0,1,1248,537.248Z" transform="translate(-1236.658 -533.448)" fill="#fff"/>
      </g>
      <g id="Group_3552" data-name="Group 3552" transform="translate(2.941 31.968)">
        <path id="Path_5494" data-name="Path 5494" d="M1239.643,540.948a.74.74,0,0,1-.542-.238l-2.292-2.265a.749.749,0,0,1,0-1.073.77.77,0,0,1,1.085,0l2.292,2.265a.749.749,0,0,1,0,1.073A.742.742,0,0,1,1239.643,540.948Z" transform="translate(-1236.583 -537.148)" fill="#fff"/>
      </g>
    </g>
  </g>
</svg>
