<svg xmlns="http://www.w3.org/2000/svg" xmlns:xlink="http://www.w3.org/1999/xlink" width="90" height="90" viewBox="0 0 90 90">
  <defs>
    <linearGradient id="linear-gradient" y1="0.5" x2="0.973" y2="0.5" gradientUnits="objectBoundingBox">
      <stop offset="0" stop-color="#0a3f5b"/>
      <stop offset="1" stop-color="#117c76"/>
    </linearGradient>
    <filter id="Ellipse_2" x="0" y="0" width="90" height="90" filterUnits="userSpaceOnUse">
      <feOffset dx="1" dy="1" input="SourceAlpha"/>
      <feGaussianBlur stdDeviation="1.5" result="blur"/>
      <feFlood flood-opacity="0.302"/>
      <feComposite operator="in" in2="blur"/>
      <feComposite in="SourceGraphic"/>
    </filter>
    <linearGradient id="linear-gradient-2" x1="0.035" x2="0.973" xlink:href="#linear-gradient"/>
  </defs>
  <g id="_4_icon" data-name="4 icon" transform="translate(-1247.5 -1708.5)">
    <g id="Group_3226" data-name="Group 3226" transform="translate(-405 15)">
      <g transform="matrix(1, 0, 0, 1, 1652.5, 1693.5)" filter="url(#Ellipse_2)">
        <circle id="Ellipse_2-2" data-name="Ellipse 2" cx="40.5" cy="40.5" r="40.5" transform="translate(3.5 3.5)" fill="url(#linear-gradient)"/>
      </g>
      <g id="Ellipse_2-3" data-name="Ellipse 2" transform="translate(1661 1702)" stroke="#fff" stroke-width="1" fill="url(#linear-gradient-2)">
        <circle cx="35.5" cy="35.5" r="35.5" stroke="none"/>
        <circle cx="35.5" cy="35.5" r="35" fill="none"/>
      </g>
    </g>
    <g id="Group_3227" data-name="Group 3227" transform="translate(39.828 1723.396)">
      <path id="Path_4918" data-name="Path 4918" d="M1259.587,24.26l.013,1.7a.553.553,0,0,0,.553.549h0a.553.553,0,0,0,.55-.555v0l-.012-1.7A7.009,7.009,0,0,0,1256,17.676a4.548,4.548,0,0,0-2.349-8.439h-.019a4.551,4.551,0,0,0-2.3,8.459,7,7,0,0,0-4.624,6.618l.011,1.7a.553.553,0,0,0,.553.55h0a.552.552,0,0,0,.549-.555v0l-.011-1.7a5.89,5.89,0,0,1,5.864-5.916h.022A5.9,5.9,0,0,1,1259.587,24.26ZM1250.214,13.8a3.445,3.445,0,0,1,3.427-3.455h.013a3.443,3.443,0,1,1,.014,6.886h0a3.291,3.291,0,0,1-2.436-1A3.413,3.413,0,0,1,1250.214,13.8Z" transform="translate(-2.019 0)" fill="#fff" stroke="#fff" stroke-miterlimit="10" stroke-width="1"/>
      <path id="Path_4919" data-name="Path 4919" d="M1245.582,35.949h-5.555v-3.51a26.281,26.281,0,0,0,4.625,1.426,2.5,2.5,0,1,0,1.074-4.885h0c-4.439-1-6.513-3.391-7.472-5.224a3.812,3.812,0,0,0-1.206-1.372,5.118,5.118,0,1,0-4.247.012,3.6,3.6,0,0,0-1.537,2.945V36.684a4.579,4.579,0,0,0,4.574,4.573h8.495V48.82a.553.553,0,0,0,1.106,0V40.709a.553.553,0,0,0-.553-.553h-9.044a3.473,3.473,0,0,1-3.469-3.468V25.34a2.49,2.49,0,0,1,2.489-2.487h.164a2.562,2.562,0,0,1,2.246,1.415c1.065,2.04,3.356,4.7,8.21,5.79a1.395,1.395,0,0,1-.541,2.736l-.059-.012a20.1,20.1,0,0,1-7.091-2.817,5.674,5.674,0,0,1-2.6-3.825.546.546,0,0,0-.606-.478l-.01,0a.553.553,0,0,0-.476.616,6.748,6.748,0,0,0,3.059,4.58,13.417,13.417,0,0,0,1.77,1.061V36.5a.553.553,0,0,0,.552.553h6.108a3.147,3.147,0,0,1,3.142,3.145v8.623a.553.553,0,0,0,1.106,0V40.195A4.253,4.253,0,0,0,1245.582,35.949ZM1230.9,17.735a4.008,4.008,0,1,1,4.009,4.008A4.009,4.009,0,0,1,1230.9,17.735Z" transform="translate(0 -0.403)" fill="#fff" stroke="#fff" stroke-miterlimit="10" stroke-width="1"/>
      <path id="Path_4920" data-name="Path 4920" d="M1273.77,22.4a5.118,5.118,0,1,0-4.248-.012,3.809,3.809,0,0,0-1.2,1.369c-.959,1.832-3.036,4.227-7.473,5.224a2.5,2.5,0,1,0,1.076,4.885,26.359,26.359,0,0,0,4.625-1.427v3.511h-5.56a4.252,4.252,0,0,0-4.244,4.25v8.623a.553.553,0,1,0,1.106,0V40.195a3.146,3.146,0,0,1,3.142-3.142h6.109a.553.553,0,0,0,.552-.553h0V31.925a13.419,13.419,0,0,0,1.769-1.059,6.733,6.733,0,0,0,3.059-4.581.554.554,0,0,0-1.1-.144,5.669,5.669,0,0,1-2.6,3.825,20.035,20.035,0,0,1-7.086,2.817,1.395,1.395,0,1,1-.634-2.717l.033-.007c4.852-1.089,7.144-3.751,8.21-5.79a2.557,2.557,0,0,1,2.245-1.415h.173a2.489,2.489,0,0,1,2.486,2.487V36.684a3.472,3.472,0,0,1-3.468,3.467h-9.044a.553.553,0,0,0-.553.553h0v8.119a.554.554,0,0,0,1.107,0V41.257h8.492a4.58,4.58,0,0,0,4.575-4.573V25.34A3.6,3.6,0,0,0,1273.77,22.4Zm-6.122-4.66a4.008,4.008,0,1,1,4.008,4.008h0a4.017,4.017,0,0,1-4.008-4.008Z" transform="translate(-3.217 -0.403)" fill="#fff" stroke="#fff" stroke-miterlimit="10" stroke-width="1"/>
    </g>
  </g>
</svg>
