<svg xmlns="http://www.w3.org/2000/svg" xmlns:xlink="http://www.w3.org/1999/xlink" width="90" height="90" viewBox="0 0 90 90">
  <defs>
    <linearGradient id="linear-gradient" y1="0.5" x2="0.973" y2="0.5" gradientUnits="objectBoundingBox">
      <stop offset="0" stop-color="#0a3f5b"/>
      <stop offset="1" stop-color="#117c76"/>
    </linearGradient>
    <filter id="Ellipse_2" x="0" y="0" width="90" height="90" filterUnits="userSpaceOnUse">
      <feOffset dx="1" dy="1" input="SourceAlpha"/>
      <feGaussianBlur stdDeviation="1.5" result="blur"/>
      <feFlood flood-opacity="0.302"/>
      <feComposite operator="in" in2="blur"/>
      <feComposite in="SourceGraphic"/>
    </filter>
    <linearGradient id="linear-gradient-2" x1="0.035" x2="0.973" xlink:href="#linear-gradient"/>
  </defs>
  <g id="_5_icon" data-name="5 icon" transform="translate(-1112.5 -1708.5)">
    <g id="Group_3228" data-name="Group 3228" transform="translate(-540 15)">
      <g transform="matrix(1, 0, 0, 1, 1652.5, 1693.5)" filter="url(#Ellipse_2)">
        <circle id="Ellipse_2-2" data-name="Ellipse 2" cx="40.5" cy="40.5" r="40.5" transform="translate(3.5 3.5)" fill="url(#linear-gradient)"/>
      </g>
      <g id="Ellipse_2-3" data-name="Ellipse 2" transform="translate(1661 1702)" stroke="#fff" stroke-width="1" fill="url(#linear-gradient-2)">
        <circle cx="35.5" cy="35.5" r="35.5" stroke="none"/>
        <circle cx="35.5" cy="35.5" r="35" fill="none"/>
      </g>
    </g>
    <g id="Group_3229" data-name="Group 3229" transform="translate(862.084 1375.494)">
      <g id="Group_3219" data-name="Group 3219" transform="translate(273.246 357.139)">
        <path id="Path_4921" data-name="Path 4921" d="M298.422,364.28a12.75,12.75,0,1,0,3.736,9.017A12.751,12.751,0,0,0,298.422,364.28Zm-15,19.055V378.9a5.978,5.978,0,1,1,11.956,0v4.429a11.711,11.711,0,0,1-11.956,0ZM285.9,368.29a3.5,3.5,0,1,1,3.5,3.5h0a3.5,3.5,0,0,1-3.5-3.5Zm11.757,13.265a11.787,11.787,0,0,1-1.2,1.049v-3.7a7.065,7.065,0,0,0-4.75-6.663,4.575,4.575,0,1,0-4.616,0,7.065,7.065,0,0,0-4.744,6.663v3.7a11.9,11.9,0,0,1-1.2-1.049,11.679,11.679,0,1,1,16.516-.005l0,.005Z" transform="translate(-273.124 -357.018)" fill="#fff" stroke="#fff" stroke-width="0.5"/>
        <path id="Path_4922" data-name="Path 4922" d="M314.666,393.96l-11.522-11.522-.033-.029a16.313,16.313,0,0,0-2.066-20.506h0a16.288,16.288,0,1,0-2.53,25.1c.01.01.02.022.029.032l11.523,11.522a3.252,3.252,0,0,0,4.6-4.6Zm-35.895-9.784a15.211,15.211,0,1,1,21.511,0,15.219,15.219,0,0,1-21.511,0ZM313.905,397.8a2.18,2.18,0,0,1-3.078,0L299.4,386.374a16.4,16.4,0,0,0,3.077-3.077L313.9,394.722a2.179,2.179,0,0,1,0,3.076Z" transform="translate(-273.246 -357.139)" fill="#fff" stroke="#fff" stroke-width="0.5"/>
      </g>
    </g>
  </g>
</svg>
