<svg xmlns="http://www.w3.org/2000/svg" xmlns:xlink="http://www.w3.org/1999/xlink" width="90" height="90" viewBox="0 0 90 90">
  <defs>
    <linearGradient id="linear-gradient" y1="0.5" x2="0.973" y2="0.5" gradientUnits="objectBoundingBox">
      <stop offset="0" stop-color="#0a3f5b"/>
      <stop offset="1" stop-color="#117c76"/>
    </linearGradient>
    <filter id="Ellipse_2" x="0" y="0" width="90" height="90" filterUnits="userSpaceOnUse">
      <feOffset dx="1" dy="1" input="SourceAlpha"/>
      <feGaussianBlur stdDeviation="1.5" result="blur"/>
      <feFlood flood-opacity="0.302"/>
      <feComposite operator="in" in2="blur"/>
      <feComposite in="SourceGraphic"/>
    </filter>
    <linearGradient id="linear-gradient-2" x1="0.035" x2="0.973" xlink:href="#linear-gradient"/>
  </defs>
  <g id="_2_icon" data-name="2 icon" transform="translate(-1518.5 -1708.5)">
    <g id="Group_3224" data-name="Group 3224" transform="translate(-134 15)">
      <g transform="matrix(1, 0, 0, 1, 1652.5, 1693.5)" filter="url(#Ellipse_2)">
        <circle id="Ellipse_2-2" data-name="Ellipse 2" cx="40.5" cy="40.5" r="40.5" transform="translate(3.5 3.5)" fill="url(#linear-gradient)"/>
      </g>
      <g id="Ellipse_2-3" data-name="Ellipse 2" transform="translate(1661 1702)" stroke="#fff" stroke-width="1" fill="url(#linear-gradient-2)">
        <circle cx="35.5" cy="35.5" r="35.5" stroke="none"/>
        <circle cx="35.5" cy="35.5" r="35" fill="none"/>
      </g>
    </g>
    <g id="document_text_accept" transform="translate(1208.061 1719.652)">
      <path id="Path_4913" data-name="Path 4913" d="M365.528,30.143v-9.63l-6.347-6.344H338.26V50.527h27.268V50.46a10.221,10.221,0,0,0,0-20.317Zm-6.82-13.232,4.077,4.075h-4.077ZM340.532,48.254V16.439h15.906v6.818h6.817v6.886a10.175,10.175,0,0,0-5.285,2.2H342.8v2.273H355.89a10.134,10.134,0,0,0-1.13,2.272H342.8v2.273h11.429a10.064,10.064,0,0,0-.067,1.136,10.2,10.2,0,0,0,3.8,7.953Zm23.86-.133a7.821,7.821,0,1,1,7.82-7.82A7.838,7.838,0,0,1,364.392,48.121ZM360.983,27.8H342.8v2.273h18.178Z" transform="translate(0 0)" fill="#fff"/>
      <path id="Path_4914" data-name="Path 4914" d="M362.394,44.189l2.272-2.272,2.272,2.272,4.545-4.545,2.272,2.272-6.817,6.817Z" transform="translate(-3.683 -3.888)" fill="#fff"/>
    </g>
  </g>
</svg>
