<svg xmlns="http://www.w3.org/2000/svg" xmlns:xlink="http://www.w3.org/1999/xlink" width="90" height="90" viewBox="0 0 90 90">
  <defs>
    <linearGradient id="linear-gradient" y1="0.5" x2="0.973" y2="0.5" gradientUnits="objectBoundingBox">
      <stop offset="0" stop-color="#0a3f5b"/>
      <stop offset="1" stop-color="#117c76"/>
    </linearGradient>
    <filter id="Ellipse_2" x="0" y="0" width="90" height="90" filterUnits="userSpaceOnUse">
      <feOffset dx="1" dy="1" input="SourceAlpha"/>
      <feGaussianBlur stdDeviation="1.5" result="blur"/>
      <feFlood flood-opacity="0.302"/>
      <feComposite operator="in" in2="blur"/>
      <feComposite in="SourceGraphic"/>
    </filter>
    <linearGradient id="linear-gradient-2" x1="0.035" x2="0.973" xlink:href="#linear-gradient"/>
  </defs>
  <g id="_7_icon" data-name="7 icon" transform="translate(-842.5 -1707.5)">
    <g id="Group_3231" data-name="Group 3231" transform="translate(-810 14)">
      <g transform="matrix(1, 0, 0, 1, 1652.5, 1693.5)" filter="url(#Ellipse_2)">
        <circle id="Ellipse_2-2" data-name="Ellipse 2" cx="40.5" cy="40.5" r="40.5" transform="translate(3.5 3.5)" fill="url(#linear-gradient)"/>
      </g>
      <g id="Ellipse_2-3" data-name="Ellipse 2" transform="translate(1661 1702)" stroke="#fff" stroke-width="1" fill="url(#linear-gradient-2)">
        <circle cx="35.5" cy="35.5" r="35.5" stroke="none"/>
        <circle cx="35.5" cy="35.5" r="35" fill="none"/>
      </g>
    </g>
    <g id="Group_3232" data-name="Group 3232" transform="translate(208.348 1370.648)">
      <g id="Group_3221" data-name="Group 3221" transform="translate(656.105 361.985)">
        <path id="Path_4923" data-name="Path 4923" d="M691.419,390.676H681.97a4.725,4.725,0,0,0-4.724,4.724v3.151h3.15V395.4a1.575,1.575,0,0,1,1.575-1.575h9.448a1.575,1.575,0,0,1,1.575,1.575v3.151h3.151V395.4A4.726,4.726,0,0,0,691.419,390.676Z" transform="translate(-655.198 -360.755)" fill="#fff" stroke="#fff" stroke-width="0.2"/>
        <path id="Path_4924" data-name="Path 4924" d="M680.266,383.385a6.3,6.3,0,1,0,6.3-6.3A6.3,6.3,0,0,0,680.266,383.385Zm9.449,0a3.15,3.15,0,1,1-3.15-3.15A3.149,3.149,0,0,1,689.715,383.385Z" transform="translate(-655.069 -361.337)" fill="#fff" stroke="#fff" stroke-width="0.2"/>
        <path id="Path_4925" data-name="Path 4925" d="M668.445,384.379l-4.079-4.079-2.22,2.22,6.3,6.3L679.468,377.8l-2.221-2.22Z" transform="translate(-655.846 -361.402)" fill="#fff" stroke="#fff" stroke-width="0.2"/>
        <path id="Path_4926" data-name="Path 4926" d="M675,396.631H659.255v-31.5h11.294l5.376,5.377.923.923h20.2v12.6h3.15v-12.6a3.149,3.149,0,0,0-3.15-3.15h-18.9l-5.377-5.377a3.15,3.15,0,0,0-2.227-.923H659.255a3.149,3.149,0,0,0-3.149,3.15v31.5a3.15,3.15,0,0,0,3.149,3.151H675Z" transform="translate(-656.105 -361.985)" fill="#fff" stroke="#fff" stroke-width="0.2"/>
      </g>
    </g>
  </g>
</svg>
