<svg xmlns="http://www.w3.org/2000/svg" width="51.167" height="59.074" viewBox="0 0 51.167 59.074">
  <g id="Students" transform="translate(0 5.502)">
    <g id="Group_3501" data-name="Group 3501" transform="translate(0 14.641)">
      <g id="Group_3500" data-name="Group 3500">
        <g id="_1923_Group_Leader_Leadership_People_Person" data-name="1923, Group, Leader, Leadership, People, Person">
          <g id="Group_3499" data-name="Group 3499">
            <path id="Path_5450" data-name="Path 5450" d="M1017.49,378.587a5.555,5.555,0,0,0,2.512-4.541c0-3.126-2.848-5.656-6.365-5.656s-6.364,2.53-6.364,5.656a5.554,5.554,0,0,0,2.512,4.541,8.58,8.58,0,0,0-5.695,7.816V394a1.052,1.052,0,0,0,1.089.968h3.182v11.39a1.1,1.1,0,0,0,2.177,0v-15.26a1.1,1.1,0,0,0-2.177,0v1.935h-2.094v-6.7c0-3.647,3.349-6.625,7.453-6.625s7.453,2.978,7.453,6.625v6.7h-2.094v-1.861a1.1,1.1,0,0,0-2.176,0v15.186a1.1,1.1,0,0,0,2.176,0V394.889h3.182a1.053,1.053,0,0,0,1.089-.967v-7.593A8.654,8.654,0,0,0,1017.49,378.587Zm-8.124-4.541a4.3,4.3,0,1,1,4.271,3.8A4.071,4.071,0,0,1,1009.366,374.047Z" transform="translate(-988.095 -368.39)" fill="#0b3d59"/>
            <path id="Path_5451" data-name="Path 5451" d="M1015.4,407.789a1.1,1.1,0,0,0-1.089,1.076v8.444a1.089,1.089,0,0,0,2.177,0v-8.444A1.1,1.1,0,0,0,1015.4,407.789Z" transform="translate(-989.854 -379.538)" fill="#0b3d59"/>
            <path id="Path_5452" data-name="Path 5452" d="M999.311,400.19a1.1,1.1,0,0,0-1.088,1.075V416a1.089,1.089,0,0,0,2.177,0V401.265A1.164,1.164,0,0,0,999.311,400.19Z" transform="translate(-987.085 -378.23)" fill="#0b3d59"/>
            <path id="Path_5453" data-name="Path 5453" d="M994.759,409.089a1.1,1.1,0,0,0-1.089,1.077v7.367a1.089,1.089,0,0,0,2.178,0v-7.367A1.1,1.1,0,0,0,994.759,409.089Z" transform="translate(-986.301 -379.762)" fill="#0b3d59"/>
            <path id="Path_5454" data-name="Path 5454" d="M993.227,374.489c-3.182,0-5.695,2.273-5.695,5.059a4.95,4.95,0,0,0,2.094,3.886,7.52,7.52,0,0,0-4.857,6.745V396.7a1.046,1.046,0,0,0,1.088.953h2.681v9.678a1.1,1.1,0,0,0,2.176,0v-13.05a1.1,1.1,0,0,0-2.176,0v1.466h-1.591v-5.571c0-3.079,2.847-5.573,6.365-5.573,3.182,0,5.778-2.272,5.778-4.985A5.607,5.607,0,0,0,993.227,374.489Zm0,8.212a3.181,3.181,0,1,1,3.6-3.153A3.374,3.374,0,0,1,993.227,382.7Z" transform="translate(-984.769 -369.44)" fill="#0b3d59"/>
            <path id="Path_5455" data-name="Path 5455" d="M1038.676,383.458a4.952,4.952,0,0,0,2.093-3.885c0-2.786-2.6-4.985-5.695-4.985-3.182,0-5.695,2.273-5.695,4.985,0,2.785,2.6,4.984,5.695,4.984,3.517,0,6.365,2.491,6.365,5.57v5.644h-1.591v-1.466a1.1,1.1,0,0,0-2.177,0v13.046a1.1,1.1,0,0,0,2.177,0v-9.675h2.68a1.046,1.046,0,0,0,1.088-.953V390.2A7.4,7.4,0,0,0,1038.676,383.458Zm-7.2-3.885a3.634,3.634,0,1,1,3.6,3.152A3.374,3.374,0,0,1,1031.473,379.574Z" transform="translate(-992.449 -369.457)" fill="#0b3d59"/>
            <path id="Path_5456" data-name="Path 5456" d="M1031.48,400.19a1.1,1.1,0,0,0-1.089,1.075V416a1.089,1.089,0,0,0,2.178,0V401.265A1.1,1.1,0,0,0,1031.48,400.19Z" transform="translate(-992.623 -378.23)" fill="#0b3d59"/>
            <path id="Path_5457" data-name="Path 5457" d="M1036.032,409.089a1.1,1.1,0,0,0-1.088,1.077v7.367a1.088,1.088,0,0,0,2.176,0v-7.367A1.1,1.1,0,0,0,1036.032,409.089Z" transform="translate(-993.407 -379.762)" fill="#0b3d59"/>
          </g>
        </g>
      </g>
    </g>
    <g id="Group_3502" data-name="Group 3502" transform="translate(11.516 -5)">
      <path id="Path_5458" data-name="Path 5458" d="M996.176,346.9a1.137,1.137,0,0,0-.669,1.8l-.475,2.812a.414.414,0,0,0,.409.484h1.945a.414.414,0,0,0,.411-.472l-.405-2.932a1.133,1.133,0,0,0-.386-1.55v-1.522l2.562,1.111V353a1.423,1.423,0,0,0,1.421,1.421h11.69A1.423,1.423,0,0,0,1014.1,353v-6.749l6.1-2.648a.415.415,0,0,0-.031-.773l-13.88-4.738a.41.41,0,0,0-.281,0c-4.752,1.8-12.557,4.668-13.282,4.711a.415.415,0,0,0-.161.8l3.608,1.565Zm-.244,4.267.427-2.531a.415.415,0,0,0-.143-.387.309.309,0,1,1,.43-.034.413.413,0,0,0-.1.329l.362,2.624Zm17.34,1.825a.593.593,0,0,1-.593.593h-11.69a.593.593,0,0,1-.593-.593v-6l5.825,2.527a.412.412,0,0,0,.33,0l6.721-2.916Zm-19.28-9.683c3-.936,10.207-3.648,12.174-4.392l12.725,4.344-12.5,5.425-8.257-3.583,6.972-.92a2.518,2.518,0,0,0,1.285.3c.961,0,1.686-.383,1.686-.89s-.725-.89-1.686-.89c-.83,0-1.481.285-1.645.689l-8.091,1.068Zm11.122.287c0-.194.5-.475,1.272-.475s1.272.281,1.272.475-.5.476-1.272.476S1005.113,343.793,1005.113,343.6Z" transform="translate(-992.318 -338.065)" fill="#0b3d59" stroke="#0b3d59" stroke-miterlimit="10" stroke-width="1"/>
    </g>
  </g>
</svg>
