<svg id="_103657_news_icon" data-name="103657_news_icon" xmlns="http://www.w3.org/2000/svg" width="15.566" height="15.566" viewBox="0 0 15.566 15.566">
  <g id="background">
    <rect id="Rectangle_2399" data-name="Rectangle 2399" width="15.549" height="15.549" fill="none"/>
  </g>
  <g id="news_1_" transform="translate(0 2.919)">
    <path id="Path_5354" data-name="Path 5354" d="M1.946,9.892h9.729V8.919H1.946ZM7.3,15.729H10.7v-.973H7.3Zm0-1.946h4.378V12.81H7.3Zm0-1.946h4.378v-.973H7.3ZM1.946,15.729H6.324V10.865H1.946ZM13.621,7.946V6H0V16.7a1.906,1.906,0,0,0,1.946,1.946H14.107s1.459-.03,1.459-1.946V7.946ZM1.946,17.675A.953.953,0,0,1,.973,16.7V6.973H12.648V16.7a1.408,1.408,0,0,0,.329.973Z" transform="translate(0 -6)" fill="#fff9f9"/>
  </g>
</svg>
