<svg xmlns="http://www.w3.org/2000/svg" width="31.299" height="37.262" viewBox="0 0 31.299 37.262">
  <g id="Group_3336" data-name="Group 3336" transform="translate(-765.778 -734.9)">
    <g id="_1917_Find_Human_Magnifier_Professional_Recruitment" data-name="1917, Find, Human, Magnifier, Professional, Recruitment" transform="translate(765.778 734.9)">
      <g id="Group_3335" data-name="Group 3335">
        <path id="Path_5374" data-name="Path 5374" d="M800.466,757.9a.809.809,0,0,0-.8.79,8.585,8.585,0,0,1-8.608,8.51.79.79,0,1,0,0,1.58,10.164,10.164,0,0,0,10.207-10.091A.771.771,0,0,0,800.466,757.9Z" transform="translate(-775.378 -743.919)" fill="#fff"/>
        <path id="Path_5375" data-name="Path 5375" d="M785.788,743.29a.809.809,0,0,0-.8-.79,10.164,10.164,0,0,0-10.208,10.091.8.8,0,0,0,1.6,0,8.585,8.585,0,0,1,8.609-8.51A.809.809,0,0,0,785.788,743.29Z" transform="translate(-769.309 -737.88)" fill="#fff"/>
        <path id="Path_5376" data-name="Path 5376" d="M793.193,759.31V757a4.6,4.6,0,0,0-2.46-4.073,2.915,2.915,0,0,0,.861-2.127,3.136,3.136,0,0,0-6.272,0,2.914,2.914,0,0,0,.861,2.127,4.549,4.549,0,0,0-2.4,4.073v2.31a.81.81,0,0,0,.8.79h7.809A.808.808,0,0,0,793.193,759.31Zm-6.211-8.51a1.537,1.537,0,1,1,1.537,1.52A1.513,1.513,0,0,1,786.982,750.8Zm4.673,7.72h-6.272V757a3.136,3.136,0,0,1,6.272,0Z" transform="translate(-772.839 -739.919)" fill="#fff"/>
        <path id="Path_5377" data-name="Path 5377" d="M781.974,734.9a14.713,14.713,0,0,0-3.935,28.934v2.857a.809.809,0,0,0,.8.79h.8v3.89a.8.8,0,0,0,1.6,0v-3.89h1.537v3.89a.8.8,0,0,0,1.6,0v-3.89h.8a.809.809,0,0,0,.8-.79v-2.857a14.726,14.726,0,0,0,10.945-14.224A14.9,14.9,0,0,0,781.974,734.9Zm2.336,31h-4.673v-1.763a15.056,15.056,0,0,0,4.673,0Zm-2.336-3.1a13.192,13.192,0,1,1,13.343-13.191A13.3,13.3,0,0,1,781.974,762.8Z" transform="translate(-766.294 -734.9)" fill="#fff"/>
        <rect id="Rectangle_2425" data-name="Rectangle 2425" width="1.537" height="1.52" transform="translate(0 29.42)" fill="#fff"/>
        <rect id="Rectangle_2426" data-name="Rectangle 2426" width="1.537" height="1.52" transform="translate(3.136 29.42)" fill="#fff"/>
        <rect id="Rectangle_2427" data-name="Rectangle 2427" width="1.537" height="1.52" transform="translate(6.272 29.42)" fill="#fff"/>
        <rect id="Rectangle_2428" data-name="Rectangle 2428" width="1.537" height="1.52" transform="translate(23.489 29.42)" fill="#fff"/>
        <rect id="Rectangle_2429" data-name="Rectangle 2429" width="1.537" height="1.52" transform="translate(26.626 29.42)" fill="#fff"/>
        <rect id="Rectangle_2430" data-name="Rectangle 2430" width="1.537" height="1.52" transform="translate(29.762 29.42)" fill="#fff"/>
      </g>
    </g>
  </g>
</svg>
