<svg xmlns="http://www.w3.org/2000/svg" width="18.067" height="18.038" viewBox="0 0 18.067 18.038" fill="#707070">
  <g id="Calendar" transform="translate(0 -30.458)">
    <g id="Group_3391" data-name="Group 3391" transform="translate(0 30.458)">
      <g id="Group_3390" data-name="Group 3390" transform="translate(0 0)">
        <path id="Path_5402" data-name="Path 5402" d="M1.254,45.664h15.72c.065.028-.064-6.711,0-6.681V33.394A1.254,1.254,0,0,0,15.72,32.14h-1.3v-.846a.836.836,0,0,0-.836-.836H12.444a.836.836,0,0,0-.836.836v.846H9.891v-.846a.836.836,0,0,0-.836-.836H7.919a.836.836,0,0,0-.836.836v.846H5.366v-.846a.836.836,0,0,0-.836-.836H3.394a.836.836,0,0,0-.836.836v.846h-1.3A1.254,1.254,0,0,0,0,33.394V44.41A1.254,1.254,0,0,0,1.254,45.664ZM.941,33.394a.314.314,0,0,1,.314-.314h1.3v.509a.836.836,0,0,0,.836.836H4.53a.836.836,0,0,0,.836-.836v-.509H7.083v.509a.836.836,0,0,0,.836.836H9.055a.836.836,0,0,0,.836-.836v-.509h1.717v.509a.836.836,0,0,0,.836.836h1.136a.836.836,0,0,0,.836-.836v-.509h1.3a.314.314,0,0,1,.314.314v2.556H.941V33.394Z" transform="translate(0 -30.458)" />
        <path id="Path_5403" data-name="Path 5403" d="M484.476,448.925a5.093,5.093,0,1,0-5.092,5.092A5.091,5.091,0,0,0,484.476,448.925Zm-2.643.447h-1.844a.75.75,0,1,1-1.052-1.046v-3a.447.447,0,1,1,.893,0v3a.754.754,0,0,1,.154.152h3a.447.447,0,1,1,0,.893Z" transform="translate(-466.659 -436.23)" stroke="#fff" stroke-width="0.5"/>
      </g>
    </g>
  </g>
</svg>
