<svg xmlns="http://www.w3.org/2000/svg" width="37.957" height="37.522" viewBox="0 0 37.957 37.522">
  <g id="COBE_Offers" data-name="COBE Offers" transform="translate(-1270.662 -357)">
    <g id="_1909_Internet_Marketing_Media_Network_Seo" data-name="1909, Internet, Marketing, Media, Network, Seo" transform="translate(1270.662 357)">
      <g id="Group_3333" data-name="Group 3333">
        <path id="Path_5370" data-name="Path 5370" d="M1308.065,387.034a7.156,7.156,0,0,1-7.156,7.074.8.8,0,1,0,0,1.6,8.687,8.687,0,0,0,8.711-8.612.819.819,0,0,0-.809-.8A.683.683,0,0,0,1308.065,387.034Z" transform="translate(-1281.992 -368.273)" fill="#fff"/>
        <path id="Path_5371" data-name="Path 5371" d="M1296.773,374.3a.819.819,0,0,0-.808-.8,8.687,8.687,0,0,0-8.711,8.612.809.809,0,0,0,1.618,0,7.062,7.062,0,0,1,7.094-7.074A.767.767,0,0,0,1296.773,374.3Z" transform="translate(-1277.048 -363.351)" fill="#fff"/>
        <path id="Path_5372" data-name="Path 5372" d="M1302.874,387.665V385.7a3.972,3.972,0,0,0-1.991-3.445,2.608,2.608,0,0,0,.622-1.784,2.8,2.8,0,0,0-5.6,0,2.955,2.955,0,0,0,.622,1.784,4.049,4.049,0,0,0-1.991,3.445v1.968a.819.819,0,0,0,.809.8h6.6C1302.5,388.4,1302.874,388.1,1302.874,387.665Zm-5.29-7.2a1.175,1.175,0,0,1,1.183-1.169,1.217,1.217,0,0,1,1.182,1.169,1.175,1.175,0,0,1-1.182,1.169A1.217,1.217,0,0,1,1297.584,380.468Zm3.672,6.4h-5.04V385.7a2.489,2.489,0,0,1,4.978,0v1.169Z" transform="translate(-1279.851 -364.967)" fill="#fff"/>
        <path id="Path_5373" data-name="Path 5373" d="M1306.255,373.424a2.383,2.383,0,0,0-2.24,1.538h-1.743a12.462,12.462,0,0,0-3.173-7.5l1.244-1.23a2.509,2.509,0,0,0,2.738-.431,2.32,2.32,0,0,0,0-3.322,2.386,2.386,0,0,0-3.36,0,2.318,2.318,0,0,0-.435,2.707l-1.244,1.23a12.756,12.756,0,0,0-7.591-3.137v-1.722a2.276,2.276,0,0,0,1.556-2.214,2.365,2.365,0,1,0-3.173,2.214v1.722a12.756,12.756,0,0,0-7.592,3.137l-1.244-1.23a2.436,2.436,0,0,0-.436-2.707,2.385,2.385,0,0,0-3.36,0,2.32,2.32,0,0,0,0,3.322h0a2.384,2.384,0,0,0,2.737.431l1.245,1.23a12.464,12.464,0,0,0-3.174,7.5h-1.742a2.3,2.3,0,0,0-2.24-1.538,2.338,2.338,0,1,0,0,4.675,2.382,2.382,0,0,0,2.24-1.538h1.742a12.464,12.464,0,0,0,3.174,7.5l-1.245,1.23a2.508,2.508,0,0,0-2.737.431,2.32,2.32,0,0,0,0,3.322,2.385,2.385,0,0,0,3.36,0,2.318,2.318,0,0,0,.436-2.707l1.244-1.23a12.756,12.756,0,0,0,7.592,3.137v1.722a2.277,2.277,0,0,0-1.556,2.214,2.365,2.365,0,1,0,3.173-2.214v-1.722a12.756,12.756,0,0,0,7.591-3.137l1.244,1.23a2.437,2.437,0,0,0,.435,2.707,2.386,2.386,0,0,0,3.36,0,2.32,2.32,0,0,0,0-3.322,2.385,2.385,0,0,0-2.738-.431l-1.244-1.23a12.462,12.462,0,0,0,3.173-7.5h1.743a2.3,2.3,0,0,0,2.24,1.538,2.338,2.338,0,1,0,0-4.675Zm-4.915-10.088a.678.678,0,0,1,.56.246.773.773,0,0,1,0,1.107.8.8,0,0,1-1.12,0,.911.911,0,0,1-.249-.554A.819.819,0,0,1,1301.339,363.336Zm-11.76-4.8a.8.8,0,1,1-.809.8A.78.78,0,0,1,1289.579,358.538Zm-12.32,6.151a.773.773,0,0,1,0-1.107.8.8,0,0,1,1.12,0,.773.773,0,0,1,0,1.107h0A.8.8,0,0,1,1277.259,364.689Zm-4.356,11.872a.8.8,0,1,1,.809-.8A.819.819,0,0,1,1272.9,376.561Zm5.476,11.38a.8.8,0,0,1-1.12,0,.773.773,0,0,1,0-1.107.8.8,0,0,1,1.12,0A.773.773,0,0,1,1278.378,387.94Zm11.2,5.044a.8.8,0,1,1,.808-.8A.779.779,0,0,1,1289.579,392.984Zm12.569-5.6a.809.809,0,1,1-.809-.8A.819.819,0,0,1,1302.148,387.387Zm-12.569-.677a10.95,10.95,0,1,1,11.076-10.949A11.038,11.038,0,0,1,1289.579,386.71Zm16.676-10.149a.8.8,0,1,1,.81-.8A.866.866,0,0,1,1306.255,376.561Z" transform="translate(-1270.662 -357)" fill="#fff"/>
      </g>
    </g>
  </g>
</svg>
