<svg xmlns="http://www.w3.org/2000/svg" width="18.264" height="10.792" viewBox="0 0 18.264 10.792">
  <g id="_309041_users_group_people_icon" data-name="309041_users_group_people_icon" transform="translate(-1 -6)">
    <g id="Group_3310" data-name="Group 3310" transform="translate(5.151 6)">
      <path id="Path_5350" data-name="Path 5350" d="M8.491,8.491a2.491,2.491,0,0,1,4.981,0,2.491,2.491,0,0,1-4.981,0Zm2.491,4.151A5.211,5.211,0,0,0,6,15.381v1.411h9.962V15.381A5.211,5.211,0,0,0,10.981,12.641Z" transform="translate(-6 -6)" fill="#fff"/>
    </g>
    <g id="Group_3313" data-name="Group 3313" transform="translate(13.203 6)">
      <g id="Group_3311" data-name="Group 3311" transform="translate(0.249)">
        <ellipse id="Ellipse_13" data-name="Ellipse 13" cx="2.5" cy="2" rx="2.5" ry="2" transform="translate(-0.453)" fill="#fff"/>
      </g>
      <g id="Group_3312" data-name="Group 3312" transform="translate(0 5.811)">
        <path id="Path_5351" data-name="Path 5351" d="M18.024,13a3.864,3.864,0,0,0-2.324.664,5.123,5.123,0,0,1,2.657,2.657V16.4h3.4V15.324A3.863,3.863,0,0,0,18.024,13Z" transform="translate(-15.7 -13)" fill="#fff"/>
      </g>
    </g>
    <g id="Group_3316" data-name="Group 3316" transform="translate(13.203 6)">
      <g id="Group_3314" data-name="Group 3314" transform="translate(0.249)">
        <ellipse id="Ellipse_14" data-name="Ellipse 14" cx="2.5" cy="2" rx="2.5" ry="2" transform="translate(-0.453)" fill="#fff"/>
      </g>
      <g id="Group_3315" data-name="Group 3315" transform="translate(0 5.811)">
        <path id="Path_5352" data-name="Path 5352" d="M18.024,13a3.864,3.864,0,0,0-2.324.664,5.123,5.123,0,0,1,2.657,2.657V16.4h3.4V15.324A3.863,3.863,0,0,0,18.024,13Z" transform="translate(-15.7 -13)" fill="#fff"/>
      </g>
    </g>
    <g id="Group_3319" data-name="Group 3319" transform="translate(1 6)">
      <g id="Group_3317" data-name="Group 3317" transform="translate(1.66)">
        <circle id="Ellipse_15" data-name="Ellipse 15" cx="2" cy="2" r="2" transform="translate(0.34)" fill="#fff"/>
      </g>
      <g id="Group_3318" data-name="Group 3318" transform="translate(0 5.811)">
        <path id="Path_5353" data-name="Path 5353" d="M4.736,13a3.864,3.864,0,0,1,2.324.664A5.123,5.123,0,0,0,4.4,16.321V16.4H1V15.324A3.863,3.863,0,0,1,4.736,13Z" transform="translate(-1 -13)" fill="#fff"/>
      </g>
    </g>
  </g>
</svg>
