<svg xmlns="http://www.w3.org/2000/svg" width="61.91" height="55.927" viewBox="0 0 61.91 55.927">
  <g id="Companies" transform="translate(0 0)">
    <g id="_1914_Chart_Data_Efficiency_Management_Person" data-name="1914, Chart, Data, Efficiency, Management, Person" transform="translate(0 0)">
      <g id="Group_3497" data-name="Group 3497">
        <path id="Path_5444" data-name="Path 5444" d="M1081.615,526.789a4.755,4.755,0,0,0,1.215-3.3,5.16,5.16,0,0,0-10.319,0,5.282,5.282,0,0,0,1.214,3.3,7.474,7.474,0,0,0-5.058,6.8v6.3a1.332,1.332,0,0,0,1.315,1.3h2.529v8.9a1.316,1.316,0,0,0,2.631,0v-12.5a1.316,1.316,0,0,0-2.631,0v1.1H1071.2v-5c0-2.8,2.934-5,6.474-5s6.474,2.2,6.474,5v5h-1.314v-1.1a1.316,1.316,0,0,0-2.631,0v12.5a1.316,1.316,0,0,0,2.631,0v-8.9h2.528a1.332,1.332,0,0,0,1.315-1.3v-6.3C1086.775,530.69,1084.65,528.089,1081.615,526.789Zm-6.473-3.3a2.529,2.529,0,1,1,2.528,2.5A2.374,2.374,0,0,1,1075.142,523.489Z" transform="translate(-1068.667 -495.662)" fill="#ffffff"/>
        <path id="Path_5445" data-name="Path 5445" d="M1077.67,542.589a1.332,1.332,0,0,0-1.315,1.3v6.3a1.315,1.315,0,0,0,2.63,0v-6.3A1.268,1.268,0,0,0,1077.67,542.589Z" transform="translate(-1068.667 -495.662)" fill="#ffffff"/>
        <path id="Path_5446" data-name="Path 5446" d="M1129.261,504.389h-5.968a1.332,1.332,0,0,0-1.315,1.3v31.9h-3.439v-5.1a1.331,1.331,0,0,0-1.315-1.3h-4.755v-8.9a1.331,1.331,0,0,0-1.315-1.3h-5.968a1.332,1.332,0,0,0-1.315,1.3v16.6h-3.44v-6.4a1.331,1.331,0,0,0-1.315-1.3h-5.969a1.331,1.331,0,0,0-1.315,1.3v17.8a1.331,1.331,0,0,0,1.315,1.3h36.114a1.332,1.332,0,0,0,1.316-1.3v-44.6A1.332,1.332,0,0,0,1129.261,504.389Zm-25.39,37v7.6h-3.44v-7.6Zm-9.408-7.7h3.439v15.3h-3.439Zm12.037-10.2h3.44v25.5h-3.44Zm5.969,10.2h3.439v15.3h-3.439Zm6.07,6.4h3.439v8.9h-3.439Zm9.407,8.9h-3.439v-42.1h3.439Z" transform="translate(-1068.667 -495.662)" fill="#ffffff"/>
        <path id="Path_5447" data-name="Path 5447" d="M1094.362,509.289l-7.689-4.3a3.865,3.865,0,1,0-3.843,3.3,4.069,4.069,0,0,0,2.629-1l7.688,4.3a3.88,3.88,0,1,0,7.688-.2l5.767-5.8a2.891,2.891,0,0,0,1.315,0l4.147,5.2a4.427,4.427,0,0,0-.809,2.6,3.844,3.844,0,0,0,7.688,0,3.872,3.872,0,0,0-4.451-3.8l-4.248-5.2a3.837,3.837,0,1,0-6.778-2.5,3.382,3.382,0,0,0,.91,2.4l-4.856,4.8A4.019,4.019,0,0,0,1094.362,509.289Zm-11.532-3.6a1.3,1.3,0,1,1,1.314-1.3A1.332,1.332,0,0,1,1082.83,505.69Zm14.263,7.7a1.3,1.3,0,1,1,1.315-1.3A1.405,1.405,0,0,1,1097.093,513.389Zm19.321,0a1.315,1.315,0,1,1-1.315-1.3A1.332,1.332,0,0,1,1116.414,513.389Zm-9.1-12.8a1.3,1.3,0,1,1-1.315,1.3A1.406,1.406,0,0,1,1107.31,500.589Z" transform="translate(-1068.667 -490.389)" fill="#ffffff"/>
        <path id="Path_5448" data-name="Path 5448" d="M1069.982,492.989h16.793a1.3,1.3,0,1,0,0-2.6h-16.793a1.3,1.3,0,1,0,0,2.6Z" transform="translate(-1068.667 -490.389)" fill="#ffffff"/>
        <path id="Path_5449" data-name="Path 5449" d="M1087.989,496.789a1.332,1.332,0,0,0-1.316-1.3h-10.216a1.3,1.3,0,1,0,0,2.6h10.318A1.246,1.246,0,0,0,1087.989,496.789Z" transform="translate(-1068.667 -490.389)" fill="#ffffff"/>
      </g>
    </g>
  </g>
</svg>
