<svg xmlns="http://www.w3.org/2000/svg" width="24.603" height="17.866" viewBox="0 0 24.603 17.866">
  <path id="cooperation-10" d="M90.124,189.988v7.481s-1.594.316-1.922.357a2.27,2.27,0,0,1-2.1-.345c-1.15-1.107-5.234-5.187-5.234-5.187a1.547,1.547,0,0,0-1.835-.094c-1.038.55-2.577,1.355-3.22,1.669a1.479,1.479,0,0,1-2.222-1.166,1.519,1.519,0,0,1,.919-1.326c1.466-.892,4.555-2.634,5.841-3.321.782-.418,1.345-.454,2.419.455,1.322,1.117,2.5,2.135,2.5,2.135a1.219,1.219,0,0,0,1,.192C87.766,190.518,90.124,189.988,90.124,189.988ZM73.865,202.664a1.3,1.3,0,0,0-1.56-1.807,1.353,1.353,0,0,0-.283-1.331,1.368,1.368,0,0,0-1.313-.333,1.351,1.351,0,0,0-.284-1.329,1.478,1.478,0,0,0-2.075.055c-.607.585-1,1.644-.454,2.268s1.162.243,1.635.135c-.132.472-.527.911-.04,1.529s1.162.243,1.636.136c-.132.47-.51.953-.042,1.526s1.244.269,1.755.109c-.2.509-.618,1.057-.077,1.671s1.79.333,2.4-.252a1.467,1.467,0,0,0,.132-2.067A1.381,1.381,0,0,0,73.865,202.664ZM85,198.771c-4.412-4.432-2.337-2.346-4.711-4.737a1.542,1.542,0,0,0-1.654-.3c-.66.291-1.51.687-2.15.989a3.537,3.537,0,0,1-1.446.483,2.466,2.466,0,0,1-1.3-4.561c.98-.681,3.237-1.887,3.237-1.887a2.828,2.828,0,0,0-2.193-.875c-1.506,0-4.651,2.07-4.651,2.07a2.449,2.449,0,0,1-2.164.057l-2.452-.858v8.56s.7.2,1.329.462a2.817,2.817,0,0,1,.689-1.093,2.7,2.7,0,0,1,3.723-.027,2.361,2.361,0,0,1,.587,1.048,2.364,2.364,0,0,1,1.6,1.663,2.385,2.385,0,0,1,1.008.618,2.422,2.422,0,0,1,.622,1.146,2.411,2.411,0,0,1,1.051.633,2.5,2.5,0,0,1,.65,2.158,0,0,0,0,1,0,0c.009.012.354.4.568.615a1.081,1.081,0,0,0,1.53,0,1.094,1.094,0,0,0,0-1.536c-.015-.015-1.518-1.594-1.4-1.716s2.034,1.879,2.07,1.916a1.081,1.081,0,0,0,1.529,0,1.092,1.092,0,0,0,0-1.535c-.021-.02-.107-.1-.139-.136,0,0-1.9-1.7-1.754-1.844a17.339,17.339,0,0,1,2.508,2.064,1.07,1.07,0,0,0,1.538-1.483c-.007-.023-1.8-1.9-1.657-2.042s1.912,1.688,1.916,1.692a1.081,1.081,0,0,0,1.529,0,1.1,1.1,0,0,0,0-1.537Z" transform="translate(-65.521 -187.772)" fill="#575757"/>
</svg>
