<svg xmlns="http://www.w3.org/2000/svg" width="10.168" height="15.336" viewBox="0 0 10.168 15.336">
  <g id="C_-_74_x2C__speaker_x2C__Person_x2C__presentation_x2C__professional_x2C__pudlic_x2C__seminar_x2C__speech" transform="translate(-39.877 -41.657)">
    <g id="Group_3309" data-name="Group 3309" transform="translate(39.877 41.657)">
      <rect id="Rectangle_2398" data-name="Rectangle 2398" width="2.942" height="4.232" transform="translate(3.613 9.802)" fill="#fff"/>
      <path id="Path_5346" data-name="Path 5346" d="M179.86,160.277h5.569V158.8a1.127,1.127,0,0,0-1.129-1.123H181a1.14,1.14,0,0,0-1.142,1.136v1.464Zm2.457-2.122h.656v.653h-.656Zm0,.98h.656v.653h-.656Z" transform="translate(-177.561 -153.434)" fill="#fff"/>
      <path id="Path_5347" data-name="Path 5347" d="M125.694,127.575h1.471v-.958h-.314v-3.091a.171.171,0,0,0-.086-.149l-1.677-.964a.171.171,0,1,0-.171.3l1.592.915v2.992h-8.854v-3l1.592-.915a.171.171,0,1,0-.171-.3l-1.678.964a.171.171,0,0,0-.086.149v3.1H117v.958h8.7Z" transform="translate(-116.997 -119.431)" fill="#fff"/>
      <path id="Path_5348" data-name="Path 5348" d="M217.6,44.571a1.457,1.457,0,1,0-1.465-1.457A1.462,1.462,0,0,0,217.6,44.571Z" transform="translate(-212.508 -41.657)" fill="#fff"/>
      <path id="Path_5349" data-name="Path 5349" d="M49,280.553V273.7h-6.96v6.849Zm-5.255-5.7a.171.171,0,0,1,.171-.171H47.2a.171.171,0,0,1,.171.171v4.575a.171.171,0,0,1-.171.171H43.911a.171.171,0,0,1-.171-.171Z" transform="translate(-40.47 -265.217)" fill="#fff"/>
    </g>
  </g>
</svg>
