<svg xmlns="http://www.w3.org/2000/svg" width="73.04" height="58.003" viewBox="0 0 73.04 58.003">
  <g id="Group_3602" data-name="Group 3602" transform="translate(-941.753 -395.274)">
    <g id="Group_3601" data-name="Group 3601" transform="translate(942.503 396.034)">
      <g id="Group_3593" data-name="Group 3593" transform="translate(0 26.736)">
        <path id="Path_5516" data-name="Path 5516" d="M1005.871,455.415H943.09a.586.586,0,0,1-.587-.586V426.245a.587.587,0,0,1,.587-.587h51.46a.586.586,0,0,1,.537.822l-3.527,8.038.3,7.951,5.966-5.195,4.944-11.266a.587.587,0,0,1,.537-.35h2.567a.587.587,0,0,1,.587.587V454.83A.586.586,0,0,1,1005.871,455.415Zm-62.2-1.172h61.609V426.831h-1.6l-4.843,11.035a.581.581,0,0,1-.152.207l-6.992,6.086a.586.586,0,0,1-.971-.421l-.349-9.311a.591.591,0,0,1,.049-.258l3.221-7.338H943.676Z" transform="translate(-942.503 -425.658)" fill="none" stroke="currentColor" stroke-width="1.5"/>
      </g>
      <g id="Group_3594" data-name="Group 3594" transform="translate(11.118 33.335)">
        <path id="Path_5517" data-name="Path 5517" d="M981.058,434.143H955.409a.587.587,0,0,1,0-1.173h25.649a.587.587,0,0,1,0,1.173Z" transform="translate(-954.822 -432.97)" fill="none" stroke="currentColor" stroke-width="1.5"/>
      </g>
      <g id="Group_3595" data-name="Group 3595" transform="translate(11.118 41.029)">
        <path id="Path_5518" data-name="Path 5518" d="M988.387,442.667H955.409a.586.586,0,1,1,0-1.172h32.978a.586.586,0,1,1,0,1.172Z" transform="translate(-954.822 -441.495)" fill="none" stroke="currentColor" stroke-width="1.5"/>
      </g>
      <g id="Group_3596" data-name="Group 3596" transform="translate(11.118 48.719)">
        <path id="Path_5519" data-name="Path 5519" d="M974.462,451.189H955.409a.587.587,0,0,1,0-1.173h19.054a.587.587,0,0,1,0,1.173Z" transform="translate(-954.822 -450.016)" fill="none" stroke="currentColor" stroke-width="1.5"/>
      </g>
      <g id="Group_3597" data-name="Group 3597" transform="translate(47.878 3.534)">
        <path id="Path_5520" data-name="Path 5520" d="M996.489,441.8a.6.6,0,0,1-.233-.048.587.587,0,0,1-.353-.517l-.349-9.311a.59.59,0,0,1,.049-.258l13.762-31.364a.585.585,0,0,1,.772-.3l7.341,3.216a.587.587,0,0,1,.3.773l-13.762,31.373a.582.582,0,0,1-.152.207l-6.992,6.086A.588.588,0,0,1,996.489,441.8Zm.243-9.786.3,7.951,5.966-5.195,13.473-30.714-6.267-2.745-.531,1.2Z" transform="translate(-995.553 -399.949)" fill="none" stroke="currentColor" stroke-width="1.5"/>
      </g>
      <g id="Group_3598" data-name="Group 3598" transform="translate(47.878 34.898)">
        <path id="Path_5521" data-name="Path 5521" d="M1003.48,439.1a.587.587,0,0,1-.235-.05l-7.341-3.225a.587.587,0,1,1,.472-1.075l7.34,3.226a.587.587,0,0,1-.236,1.124Z" transform="translate(-995.553 -434.701)" fill="none" stroke="currentColor" stroke-width="1.5"/>
      </g>
      <g id="Group_3599" data-name="Group 3599" transform="translate(61.64)">
        <path id="Path_5522" data-name="Path 5522" d="M1018.729,403.957a.572.572,0,0,1-.235-.051l-7.341-3.215a.587.587,0,0,1-.3-.773l1.143-2.6a2.211,2.211,0,0,1,2.859-1.11l4.44,1.942a2.18,2.18,0,0,1,1.118,2.863l-1.145,2.594A.588.588,0,0,1,1018.729,403.957Zm-6.567-4.1,6.266,2.745.908-2.056a1,1,0,0,0-.514-1.317l-4.44-1.942a1.01,1.01,0,0,0-1.313.505Z" transform="translate(-1010.801 -396.034)" fill="none" stroke="currentColor" stroke-width="1.5"/>
      </g>
      <g id="Group_3600" data-name="Group 3600" transform="translate(59.905 7.84)">
        <path id="Path_5523" data-name="Path 5523" d="M1016.807,409.119a.591.591,0,0,1-.236-.05l-7.341-3.225a.586.586,0,1,1,.471-1.074l7.341,3.224a.587.587,0,0,1-.236,1.125Z" transform="translate(-1008.879 -404.72)" fill="none" stroke="currentColor" stroke-width="1.5"/>
      </g>
    </g>
  </g>
</svg>
