<svg xmlns="http://www.w3.org/2000/svg" width="11.623" height="13.948" viewBox="0 0 11.623 13.948">
    <g id="Passed_exam" transform="translate(-81 -46)">
        <path id="Path_5357" data-name="Path 5357" d="M92.187,46H81.439a.44.44,0,0,0-.439.439V59.512a.438.438,0,0,0,.439.436H92.187a.435.435,0,0,0,.436-.436V46.439A.438.438,0,0,0,92.187,46ZM86.23,57.635H83.325a.436.436,0,0,1,0-.872H86.23A.436.436,0,0,1,86.23,57.635Zm0-3.2H83.325a.436.436,0,0,1,0-.872H86.23A.436.436,0,0,1,86.23,54.438Zm1.174-3.5a.436.436,0,0,1-.872,0V48.682a1.374,1.374,0,1,1,2.749,0V50.94a.436.436,0,0,1-.872,0v-.613H87.4Zm3.2,5.852-1.43,1.43a.422.422,0,0,1-.308.128.431.431,0,0,1-.308-.128l-.6-.6A.436.436,0,0,1,88.572,57l.3.3,1.122-1.122a.436.436,0,0,1,.616.616Zm0-3.2-1.43,1.43a.422.422,0,0,1-.308.128.431.431,0,0,1-.308-.128l-.6-.6a.436.436,0,0,1,.616-.616l.3.3L89.99,52.98a.436.436,0,0,1,.616.616Z" fill="#fff"/>
        <path id="Path_5358" data-name="Path 5358" d="M274.856,112.127a.5.5,0,1,0-1.005,0v.773h1.005Z" transform="translate(-186.446 -63.445)" fill="#fff"/>
    </g>
</svg>