<svg xmlns="http://www.w3.org/2000/svg" width="34.246" height="35.088" viewBox="0 0 34.246 35.088">
  <g id="Incoming_Students" data-name="Incoming Students" transform="translate(-1173.6 -589.823)">
    <g id="Group_3561" data-name="Group 3561" transform="translate(1173.6 589.823)">
      <g id="Group_3554" data-name="Group 3554" transform="translate(0 30.622)">
        <path id="Path_5495" data-name="Path 5495" d="M1183.291,643.452h-8.918a.764.764,0,1,1,0-1.528h8.918a.781.781,0,0,1,.772.763A.825.825,0,0,1,1183.291,643.452Z" transform="translate(-1173.6 -641.924)" fill="#fff"/>
      </g>
      <g id="Group_3555" data-name="Group 3555" transform="translate(0 33.561)">
        <path id="Path_5496" data-name="Path 5496" d="M1183.291,648.452h-8.918a.764.764,0,1,1,0-1.528h8.918a.781.781,0,0,1,.772.763A.825.825,0,0,1,1183.291,648.452Z" transform="translate(-1173.6 -646.924)" fill="#fff"/>
      </g>
      <rect id="Rectangle_2461" data-name="Rectangle 2461" width="1.486" height="1.469" transform="translate(29.728 27.036)" fill="#fff"/>
      <rect id="Rectangle_2462" data-name="Rectangle 2462" width="1.487" height="1.469" transform="translate(26.755 27.036)" fill="#fff"/>
      <rect id="Rectangle_2463" data-name="Rectangle 2463" width="1.487" height="1.469" transform="translate(23.782 27.036)" fill="#fff"/>
      <rect id="Rectangle_2464" data-name="Rectangle 2464" width="1.486" height="1.469" transform="translate(20.809 27.036)" fill="#fff"/>
      <rect id="Rectangle_2465" data-name="Rectangle 2465" width="1.487" height="1.469" transform="translate(17.836 27.036)" fill="#fff"/>
      <rect id="Rectangle_2466" data-name="Rectangle 2466" width="1.486" height="1.469" transform="translate(29.728 29.975)" fill="#fff"/>
      <rect id="Rectangle_2467" data-name="Rectangle 2467" width="1.487" height="1.469" transform="translate(26.755 29.975)" fill="#fff"/>
      <rect id="Rectangle_2468" data-name="Rectangle 2468" width="1.487" height="1.469" transform="translate(23.782 29.975)" fill="#fff"/>
      <rect id="Rectangle_2469" data-name="Rectangle 2469" width="1.486" height="1.469" transform="translate(20.809 29.975)" fill="#fff"/>
      <rect id="Rectangle_2470" data-name="Rectangle 2470" width="1.487" height="1.469" transform="translate(17.836 29.975)" fill="#fff"/>
      <g id="Group_3556" data-name="Group 3556" transform="translate(3.746 6.994)">
        <path id="Path_5497" data-name="Path 5497" d="M1187.405,620.707a.84.84,0,0,1-.357-.118,13.924,13.924,0,0,1-7.075-12.107,14.2,14.2,0,0,1,1.486-6.289.86.86,0,0,1,.595-.411c2.319-.234,3.865.235,4.4,1.293.535,1.117,0,3.056-.119,3.409s-.238.647-.3.823a.286.286,0,0,0-.06.176h0c.12.47,1.368,1.058,2.795,1.234a6.4,6.4,0,0,0,1.843,0,4.665,4.665,0,0,1,2.319.177c.595.234,2.438,1,2.5,2.409a2.119,2.119,0,0,1-1.129,1.763c-.3.236-.595.47-.655.646-.059.411.773.94,1.308,1.352.773.528,1.546,1.116,1.308,1.939a1.23,1.23,0,0,1-1.129.882,8.5,8.5,0,0,1-1.308.059,9.478,9.478,0,0,0-4.043.764A5.608,5.608,0,0,0,1188,620.3.619.619,0,0,1,1187.405,620.707Zm-4.816-17.456a12.305,12.305,0,0,0-1.19,5.29,12.5,12.5,0,0,0,5.827,10.521,5.5,5.5,0,0,1,1.843-1.469h0a9.592,9.592,0,0,1,4.7-.94h.536a.81.81,0,0,1-.239-.176c-.832-.588-2.021-1.41-1.9-2.645a2.263,2.263,0,0,1,1.249-1.7c.238-.177.595-.412.535-.53,0-.294-.773-.823-1.546-1.117a3.257,3.257,0,0,0-1.665-.117,9.055,9.055,0,0,1-2.2,0c-.832-.118-3.686-.647-4.043-2.41a1.493,1.493,0,0,1,.178-1.058,3.838,3.838,0,0,0,.238-.646,4.233,4.233,0,0,0,.179-2.351C1184.967,603.486,1184.194,603.133,1182.589,603.251Z" transform="translate(-1179.973 -601.722)" fill="#fff"/>
      </g>
      <g id="Group_3557" data-name="Group 3557" transform="translate(18.841 2.645)">
        <path id="Path_5498" data-name="Path 5498" d="M1212.2,603.609c-1.784,0-3.092-.176-3.508-1.175a1.9,1.9,0,0,1,.119-1.528c.06-.176.179-.411.119-.47a1.293,1.293,0,0,0-.475-.176,3.56,3.56,0,0,1-1.546-.706,3.519,3.519,0,0,1-1.189-3.233h0c.416-1.411,2.616-2,7.253-2a.8.8,0,0,1,.476.176,14.1,14.1,0,0,1,5.054,7.935.676.676,0,0,1-.119.588.709.709,0,0,1-.535.294c-.177,0-.416.059-.654.059-1.07.059-2.319.176-3.924.176A6.9,6.9,0,0,1,1212.2,603.609Zm-2.2-1.822s.119.176.773.236,1.605.058,2.438.058c1.486-.058,2.616-.118,3.567-.176a12.362,12.362,0,0,0-4.1-6.113h-.119c-5.113,0-5.41.882-5.469.941h0a2.317,2.317,0,0,0,.714,1.7,2.739,2.739,0,0,0,.952.411,2.107,2.107,0,0,1,1.427.882,1.874,1.874,0,0,1-.059,1.705,1.2,1.2,0,0,0-.119.352Zm-3.568-5.29Z" transform="translate(-1205.657 -594.323)" fill="#fff"/>
      </g>
      <g id="Group_3558" data-name="Group 3558" transform="translate(22.348 14.085)">
        <path id="Path_5499" data-name="Path 5499" d="M1216.327,623.8a.76.76,0,0,1-.356-.059.743.743,0,0,1-.416-.763,2.794,2.794,0,0,0-.476-2.469,2.32,2.32,0,0,0-1.249-.647,2.912,2.912,0,0,1-1.962-1.411,3.424,3.424,0,0,1,.535-3.408c1.368-1.705,3.984-1.294,6.3-.941.654.118,1.249.176,1.783.235a.828.828,0,0,1,.536.294.942.942,0,0,1,.178.529,13.639,13.639,0,0,1-4.34,8.522A1.745,1.745,0,0,1,1216.327,623.8Zm-.595-8.581a2.621,2.621,0,0,0-2.14.706h0a2.016,2.016,0,0,0-.357,1.88c.178.353.535.471,1.13.647a4.437,4.437,0,0,1,1.9,1.058,3.3,3.3,0,0,1,.832,1.705,12.326,12.326,0,0,0,2.557-5.583l-1.07-.177A28.066,28.066,0,0,0,1215.733,615.219Zm-2.735.235Z" transform="translate(-1211.623 -613.788)" fill="#fff"/>
      </g>
      <g id="Group_3559" data-name="Group 3559" transform="translate(5.149)">
        <path id="Path_5500" data-name="Path 5500" d="M1192.849,617.388h-.119a14.085,14.085,0,0,1-4.637-1.645.917.917,0,0,1-.357-.471.718.718,0,0,1,.119-.588,6.594,6.594,0,0,1,2.26-2,9.588,9.588,0,0,1,4.7-.94h.535a.8.8,0,0,1-.237-.176c-.832-.588-2.022-1.41-1.9-2.645a2.26,2.26,0,0,1,1.248-1.7c.238-.177.594-.412.535-.53,0-.294-.773-.823-1.546-1.117a3.254,3.254,0,0,0-1.664-.117,9.061,9.061,0,0,1-2.2,0c-.832-.118-3.686-.647-4.043-2.41a1.494,1.494,0,0,1,.178-1.058,3.775,3.775,0,0,0,.238-.646,4.224,4.224,0,0,0,.178-2.351c-.119-.294-1.07-.647-2.913-.471a.988.988,0,0,1-.713-.294.717.717,0,0,1-.059-.764,14.129,14.129,0,0,1,12.6-7.641,14.155,14.155,0,0,1,8.74,3,.721.721,0,0,1-.475,1.292h0c-5.47-.059-5.767.882-5.767.94a2.317,2.317,0,0,0,.714,1.7,2.751,2.751,0,0,0,.951.411,2.1,2.1,0,0,1,1.427.882,1.872,1.872,0,0,1-.059,1.7,1.488,1.488,0,0,0-.119.412h0s.119.176.773.234,1.605.059,2.437.059c1.606-.059,2.795-.118,3.746-.177.239,0,.476-.059.655-.059a.769.769,0,0,1,.772.588,13.023,13.023,0,0,1,.357,3.056,14.3,14.3,0,0,1-.119,1.588.716.716,0,0,1-.773.646c-.595-.058-1.248-.118-1.843-.235-2.021-.294-4.043-.588-4.935.411a2.018,2.018,0,0,0-.357,1.881c.178.353.535.47,1.13.646a4.445,4.445,0,0,1,1.9,1.059,4.206,4.206,0,0,1,.832,3.643.492.492,0,0,1-.238.411,14.927,14.927,0,0,1-1.9,1.469.862.862,0,0,1-.416.118h-8.918V616.8a1.038,1.038,0,0,1-.238.588A1.282,1.282,0,0,0,1192.849,617.388Zm-3.27-2.527a10.646,10.646,0,0,0,2.5.882v-1.117a.782.782,0,0,1,.773-.764h9.394a7.374,7.374,0,0,0,1.308-1.057,2.818,2.818,0,0,0-.475-2.234,2.32,2.32,0,0,0-1.248-.647,2.913,2.913,0,0,1-1.962-1.411,3.423,3.423,0,0,1,.535-3.409c1.367-1.7,3.983-1.293,6.3-.94a6.716,6.716,0,0,0,1.011.118v-.706a12.6,12.6,0,0,0-.179-2.116,32.159,32.159,0,0,1-3.864.235c-2.378.059-4.1,0-4.637-1.175a1.893,1.893,0,0,1,.119-1.528c.059-.177.177-.412.119-.471a1.324,1.324,0,0,0-.476-.176,3.374,3.374,0,0,1-2.735-3.938c.357-1.175,1.843-1.763,4.816-1.94a12.722,12.722,0,0,0-16.469,4.349c1.546.059,2.616.529,3.032,1.352.535,1.117,0,3.056-.119,3.409s-.237.647-.3.823a.286.286,0,0,0-.06.176h0c.12.47,1.368,1.058,2.795,1.234a6.4,6.4,0,0,0,1.843,0,4.665,4.665,0,0,1,2.319.177c.595.234,2.438,1,2.5,2.409a2.119,2.119,0,0,1-1.129,1.763c-.3.236-.595.47-.655.646-.059.411.773.94,1.308,1.352.773.528,1.546,1.116,1.308,1.939a1.23,1.23,0,0,1-1.129.882,8.5,8.5,0,0,1-1.308.059,9.478,9.478,0,0,0-4.043.764A10.11,10.11,0,0,0,1189.578,614.861Zm-2.675-12.226Z" transform="translate(-1182.361 -589.823)" fill="#fff"/>
      </g>
      <g id="Group_3560" data-name="Group 3560" transform="translate(14.864 24.039)">
        <path id="Path_5501" data-name="Path 5501" d="M1217.5,641.067h-17.837a.782.782,0,0,1-.773-.764v-8.816a.782.782,0,0,1,.773-.764H1217.5a.782.782,0,0,1,.772.764V640.3A.876.876,0,0,1,1217.5,641.067Zm-17.123-1.469h16.35v-7.347h-16.35Z" transform="translate(-1198.89 -630.723)" fill="#fff"/>
      </g>
    </g>
  </g>
</svg>
