<svg xmlns="http://www.w3.org/2000/svg" width="31.004" height="30.598" viewBox="0 0 31.004 30.598">
  <g id="IT_team" data-name="IT team" transform="translate(-952.799 -317.5)">
    <g id="Group_3529" data-name="Group 3529" transform="translate(952.799 317.5)">
      <g id="Group_3524" data-name="Group 3524" transform="translate(0 25.498)">
        <path id="Path_5470" data-name="Path 5470" d="M990.922,427.6H971.577a7.076,7.076,0,0,1-4.024-1.224,4.038,4.038,0,0,1-1.754-3.213.679.679,0,0,1,.671-.663h29.662a.679.679,0,0,1,.671.663,4.037,4.037,0,0,1-1.754,3.213A7.672,7.672,0,0,1,990.922,427.6Zm-23.781-3.825c.412,1.428,2.218,2.55,4.437,2.55h19.345c2.167,0,4.024-1.122,4.437-2.55Z" transform="translate(-965.799 -422.5)" fill="#fff"/>
      </g>
      <g id="Group_3525" data-name="Group 3525" transform="translate(2.528 8.312)">
        <path id="Path_5471" data-name="Path 5471" d="M995.931,407.261h-24.5a.679.679,0,0,1-.671-.663V391.809A3.032,3.032,0,0,1,973.8,388.8h5.778a.634.634,0,0,1,.567.357.62.62,0,0,1-.052.663,1.377,1.377,0,0,0-.31.867v5.1h1.29a.679.679,0,0,1,.671.663v4.488h3.869v-4.488a.679.679,0,0,1,.671-.663h1.238v-5.1a1.374,1.374,0,0,0-.31-.867.622.622,0,0,1-.052-.663.635.635,0,0,1,.568-.357h5.778a3.032,3.032,0,0,1,3.043,3.009v14.84A.662.662,0,0,1,995.931,407.261Zm-23.885-1.275H995.26V391.809a1.729,1.729,0,0,0-1.754-1.734H988.76a2.643,2.643,0,0,1,.052.663V396.5a.679.679,0,0,1-.671.663h-1.29v4.488a.679.679,0,0,1-.671.663h-5.159a.679.679,0,0,1-.671-.663v-4.59h-1.29a.679.679,0,0,1-.671-.663v-5.712c0-.2.052-.408.052-.663H973.7a1.729,1.729,0,0,0-1.754,1.734v14.228Z" transform="translate(-970.756 -388.8)" fill="#fff"/>
      </g>
      <g id="Group_3526" data-name="Group 3526" transform="translate(10.215 7.343)">
        <path id="Path_5472" data-name="Path 5472" d="M993.618,401.23H988.46a.679.679,0,0,1-.671-.663V396.13H986.5a.679.679,0,0,1-.671-.663v-5.712a2.876,2.876,0,0,1,.567-1.683,3.2,3.2,0,0,1,2.476-1.173h4.282a3.2,3.2,0,0,1,2.476,1.173,2.876,2.876,0,0,1,.568,1.683v5.763a.679.679,0,0,1-.671.663h-1.29v4.488C994.289,400.924,993.979,401.23,993.618,401.23Zm-4.488-1.275H993v-4.488a.679.679,0,0,1,.671-.663h1.238v-5.1a1.374,1.374,0,0,0-.31-.867,1.847,1.847,0,0,0-1.444-.663h-4.282a1.929,1.929,0,0,0-1.445.663,1.377,1.377,0,0,0-.31.867v5.1h1.29a.679.679,0,0,1,.671.663v4.488Z" transform="translate(-985.829 -386.9)" fill="#fff"/>
      </g>
      <g id="Group_3527" data-name="Group 3527" transform="translate(11.555)">
        <path id="Path_5473" data-name="Path 5473" d="M992.018,379.537a3.519,3.519,0,1,1,3.56-3.519A3.547,3.547,0,0,1,992.018,379.537Zm0-5.763a2.244,2.244,0,1,0,2.27,2.244A2.277,2.277,0,0,0,992.018,373.775Z" transform="translate(-988.458 -372.5)" fill="#fff"/>
      </g>
      <g id="Group_3528" data-name="Group 3528" transform="translate(8.305 22.897)">
        <path id="Path_5474" data-name="Path 5474" d="M1001.482,418.726H982.756a.663.663,0,1,1,0-1.326h18.726a.679.679,0,0,1,.67.663A.717.717,0,0,1,1001.482,418.726Z" transform="translate(-982.085 -417.4)" fill="#fff"/>
      </g>
      <rect id="Rectangle_2457" data-name="Rectangle 2457" width="1.29" height="1.275" transform="translate(5.107 17.849)" fill="#fff"/>
      <rect id="Rectangle_2458" data-name="Rectangle 2458" width="1.29" height="1.275" transform="translate(7.686 17.849)" fill="#fff"/>
      <rect id="Rectangle_2459" data-name="Rectangle 2459" width="1.29" height="1.275" transform="translate(21.873 17.849)" fill="#fff"/>
      <rect id="Rectangle_2460" data-name="Rectangle 2460" width="1.29" height="1.275" transform="translate(24.452 17.849)" fill="#fff"/>
    </g>
  </g>
</svg>
