<svg xmlns="http://www.w3.org/2000/svg" width="11.099" height="13" viewBox="0 0 11.099 13">
  <g id="Group_3320" data-name="Group 3320" transform="translate(-17497.745 16282.418)">
    <path id="sign-in-fill" d="M8.508,3.634,5.8,6.342a.542.542,0,0,1-.925-.383V3.792H.542a.542.542,0,1,1,0-1.083H4.875V.542A.542.542,0,0,1,5.8.159L8.508,2.867a.542.542,0,0,1,0,.766Z" transform="translate(17506.412 -16272.667) rotate(180)" fill="#fff"/>
    <path id="sign-in-fill-2" data-name="sign-in-fill" d="M27.073,32H23.281a.542.542,0,0,0,0,1.083h3.792V43.917H23.281a.542.542,0,0,0,0,1.083h3.792a1.083,1.083,0,0,0,1.083-1.083V33.083A1.083,1.083,0,0,0,27.073,32Z" transform="translate(17480.688 -16314.418)" fill="#fff"/>
  </g>
</svg>
