<svg xmlns="http://www.w3.org/2000/svg" width="22.705" height="22.423" viewBox="0 0 22.705 22.423" fill="#707070">
  <g id="map" transform="translate(-3.75 -3.05)">
    <path id="Path_5423" data-name="Path 5423" d="M9.792,4.25V21.974a3.234,3.234,0,0,0-.725.282l-2.86,1.5a1.658,1.658,0,0,1-1.638-.04,1.69,1.69,0,0,1-.819-1.437V8.453a1.642,1.642,0,0,1,.9-1.477Z" transform="translate(0 0.411)" />
    <path id="Path_5424" data-name="Path 5424" d="M15.792,12.051V25.062l-5.317-2.806a3.234,3.234,0,0,0-.725-.282V4.25l4.35,2.3a6.17,6.17,0,0,0,1.02,4.511c.04.054.309.443.671.994Z" transform="translate(2.056 0.411)"/>
    <path id="Path_5425" data-name="Path 5425" d="M21.792,10.81v7.8a1.642,1.642,0,0,1-.9,1.477L15.75,22.814V12.354a3.936,3.936,0,0,0,2.35.765h.013a4.027,4.027,0,0,0,3.33-1.786l.336-.5S21.792,10.837,21.792,10.81Z" transform="translate(4.112 2.659)"/>
    <path id="Path_5426" data-name="Path 5426" d="M22.048,4.876A4.243,4.243,0,0,0,18.557,3.05,4.3,4.3,0,0,0,15.025,9.8c.027.067.269.4.6.9.4.6.967,1.437,1.558,2.323a1.7,1.7,0,0,0,1.37.725,1.665,1.665,0,0,0,1.383-.738l.4-.6c.9-1.37,1.678-2.511,1.746-2.6a4.325,4.325,0,0,0,.765-2.457,4.244,4.244,0,0,0-.806-2.471ZM18.557,9.32a1.678,1.678,0,1,1,1.678-1.678A1.679,1.679,0,0,1,18.557,9.32Z" transform="translate(3.602 0)"/>
  </g>
</svg>
