<svg xmlns="http://www.w3.org/2000/svg" width="48.915" height="58.329" viewBox="0 0 48.915 58.329">
  <g id="Group_3592" data-name="Group 3592" transform="translate(-864.309 -418.002)">
    <g id="Group_3591" data-name="Group 3591" transform="translate(865.059 418.752)">
      <g id="Group_3579" data-name="Group 3579">
        <path id="Path_5504" data-name="Path 5504" d="M884.385,460.469h-18.86a.467.467,0,0,1-.466-.467V419.219a.467.467,0,0,1,.466-.467h33.727a.467.467,0,0,1,.467.467v29.551a.467.467,0,0,1-.711.4,9.547,9.547,0,0,0-14.215,10.606.467.467,0,0,1-.407.7Zm-18.393-.934h17.783a10.477,10.477,0,0,1,15.01-11.564V419.686H865.992Z" transform="translate(-865.059 -418.752)" fill="none" stroke='currentColor' stroke-width="1.5"/>
      </g>
      <g id="Group_3580" data-name="Group 3580" transform="translate(7.279 23)">
        <path id="Path_5505" data-name="Path 5505" d="M894.826,451.719H875.664a.467.467,0,0,1,0-.934h19.162a.467.467,0,0,1,0,.934Z" transform="translate(-875.197 -450.785)" fill="none" stroke='currentColor' stroke-width="1.5"/>
      </g>
      <g id="Group_3581" data-name="Group 3581" transform="translate(10.526 28.067)">
        <path id="Path_5506" data-name="Path 5506" d="M892.859,458.776H880.186a.467.467,0,0,1,0-.934h12.674a.467.467,0,1,1,0,.934Z" transform="translate(-879.719 -457.842)" fill="none" stroke='currentColor' stroke-width="1.5"/>
      </g>
      <g id="Group_3582" data-name="Group 3582" transform="translate(8.98 33.134)">
        <path id="Path_5507" data-name="Path 5507" d="M888.834,465.833h-10.8a.467.467,0,0,1,0-.934h10.8a.467.467,0,0,1,0,.934Z" transform="translate(-877.566 -464.899)" fill="none" stroke='currentColor' stroke-width="1.5"/>
      </g>
      <g id="Group_3583" data-name="Group 3583" transform="translate(7.279 7.648)">
        <path id="Path_5508" data-name="Path 5508" d="M894.826,430.337H875.664a.467.467,0,0,1,0-.934h19.162a.467.467,0,0,1,0,.934Z" transform="translate(-875.197 -429.403)" fill="none" stroke='currentColor' stroke-width="1.5"/>
      </g>
      <g id="Group_3584" data-name="Group 3584" transform="translate(10.526 12.714)">
        <path id="Path_5509" data-name="Path 5509" d="M892.859,437.393H880.186a.467.467,0,0,1,0-.934h12.674a.467.467,0,1,1,0,.934Z" transform="translate(-879.719 -436.459)" fill="none" stroke='currentColor' stroke-width="1.5"/>
      </g>
      <g id="Group_3585" data-name="Group 3585" transform="translate(8.98 17.782)">
        <path id="Path_5510" data-name="Path 5510" d="M893.8,444.45H878.033a.467.467,0,0,1,0-.933H893.8a.467.467,0,0,1,0,.933Z" transform="translate(-877.566 -443.517)" fill="none" stroke='currentColor' stroke-width="1.5"/>
      </g>
      <g id="Group_3586" data-name="Group 3586" transform="translate(18.474 28.067)">
        <path id="Path_5511" data-name="Path 5511" d="M901.274,478.8a10.481,10.481,0,1,1,10.476-10.478A10.494,10.494,0,0,1,901.274,478.8Zm0-20.028a9.547,9.547,0,1,0,9.543,9.55A9.561,9.561,0,0,0,901.274,458.776Z" transform="translate(-890.789 -457.842)" fill="none" stroke='currentColor' stroke-width="1.5"/>
      </g>
      <g id="Group_3587" data-name="Group 3587" transform="translate(33.843 43.232)">
        <path id="Path_5512" data-name="Path 5512" d="M922.009,492.56a.469.469,0,0,1-.33-.136l-9.349-9.349a.467.467,0,0,1,.661-.661l9.018,9.018,2.628-2.632-9.068-9.04a.466.466,0,0,1,.658-.661l9.4,9.37a.465.465,0,0,1,0,.66l-3.289,3.293a.466.466,0,0,1-.33.137Z" transform="translate(-912.193 -478.963)" fill="none" stroke='currentColor' stroke-width="1.5"/>
      </g>
      <g id="Group_3588" data-name="Group 3588" transform="translate(24.319 33.469)">
        <path id="Path_5513" data-name="Path 5513" d="M907.735,466.3H899.4a.467.467,0,0,1,0-.934h8.339a.467.467,0,1,1,0,.934Z" transform="translate(-898.929 -465.365)" fill="none" stroke='currentColor' stroke-width="1.5"/>
      </g>
      <g id="Group_3589" data-name="Group 3589" transform="translate(22.945 38.085)">
        <path id="Path_5514" data-name="Path 5514" d="M908.569,472.728H897.482a.467.467,0,0,1,0-.934h11.088a.467.467,0,1,1,0,.934Z" transform="translate(-897.015 -471.794)" fill="none" stroke='currentColor' stroke-width="1.5"/>
      </g>
      <g id="Group_3590" data-name="Group 3590" transform="translate(24.319 42.701)">
        <path id="Path_5515" data-name="Path 5515" d="M907.735,479.156H899.4a.467.467,0,1,1,0-.933h8.339a.467.467,0,1,1,0,.933Z" transform="translate(-898.929 -478.223)" fill="none" stroke='currentColor' stroke-width="1.5"/>
      </g>
    </g>
  </g>
</svg>
