<svg xmlns="http://www.w3.org/2000/svg" xmlns:xlink="http://www.w3.org/1999/xlink" width="90" height="90" viewBox="0 0 90 90">
  <defs>
    <linearGradient id="linear-gradient" y1="0.5" x2="0.973" y2="0.5" gradientUnits="objectBoundingBox">
      <stop offset="0" stop-color="#0a3f5b"/>
      <stop offset="1" stop-color="#117c76"/>
    </linearGradient>
    <filter id="Ellipse_2" x="0" y="0" width="90" height="90" filterUnits="userSpaceOnUse">
      <feOffset dx="1" dy="1" input="SourceAlpha"/>
      <feGaussianBlur stdDeviation="1.5" result="blur"/>
      <feFlood flood-opacity="0.302"/>
      <feComposite operator="in" in2="blur"/>
      <feComposite in="SourceGraphic"/>
    </filter>
    <linearGradient id="linear-gradient-2" x1="0.035" x2="0.973" xlink:href="#linear-gradient"/>
  </defs>
  <g id="_1_icon" data-name="1 icon" transform="translate(-1652.5 -1708.5)">
    <g id="Group_3223" data-name="Group 3223" transform="translate(0 15)">
      <g id="Group_3224" data-name="Group 3224">
        <g transform="matrix(1, 0, 0, 1, 1652.5, 1693.5)" filter="url(#Ellipse_2)">
          <circle id="Ellipse_2-2" data-name="Ellipse 2" cx="40.5" cy="40.5" r="40.5" transform="translate(3.5 3.5)" fill="url(#linear-gradient)"/>
        </g>
        <g id="Ellipse_2-3" data-name="Ellipse 2" transform="translate(1661 1702)" stroke="#fff" stroke-width="1" fill="url(#linear-gradient-2)">
          <circle cx="35.5" cy="35.5" r="35.5" stroke="none"/>
          <circle cx="35.5" cy="35.5" r="35" fill="none"/>
        </g>
      </g>
      <g id="Group_3223-2" data-name="Group 3223" transform="translate(1671.842 1706.232)">
        <path id="Path_4915" data-name="Path 4915" d="M40.564,10.633H8.76a1.3,1.3,0,0,0-1.3,1.3V50.613a1.3,1.3,0,0,0,1.3,1.29h31.8a1.288,1.288,0,0,0,1.289-1.286V11.931A1.294,1.294,0,0,0,40.564,10.633ZM22.938,45.06h-8.6a1.29,1.29,0,1,1,0-2.579h8.6A1.29,1.29,0,0,1,22.938,45.06Zm0-9.458h-8.6a1.29,1.29,0,1,1,0-2.579h8.6A1.29,1.29,0,0,1,22.938,35.6Zm3.474-10.352a1.29,1.29,0,0,1-2.579,0v-6.68a4.067,4.067,0,0,1,8.133,0v6.68a1.29,1.29,0,0,1-2.579,0V23.435H26.412Zm9.475,17.316L31.656,46.8a1.248,1.248,0,0,1-.912.378,1.277,1.277,0,0,1-.911-.378l-1.789-1.789a1.289,1.289,0,0,1,1.823-1.823l.877.877,3.319-3.319a1.289,1.289,0,0,1,1.824,1.823Zm0-9.457-4.231,4.23a1.244,1.244,0,0,1-.912.378,1.269,1.269,0,0,1-.911-.378L28.045,35.55a1.289,1.289,0,0,1,1.823-1.824l.877.878,3.319-3.319a1.289,1.289,0,0,1,1.824,1.823Z" transform="translate(0 0)" fill="#fff"/>
        <path id="Path_4916" data-name="Path 4916" d="M30.472,18.938a1.487,1.487,0,0,0-2.975,0v2.287h2.975Z" transform="translate(-1.085 -0.37)" fill="#fff"/>
      </g>
    </g>
  </g>
</svg>
