<svg id="_1907_Class_Education_People_School_Students" data-name="1907, Class, Education, People, School, Students" xmlns="http://www.w3.org/2000/svg" width="61.808" height="55.927" viewBox="0 0 61.808 55.927">
  <g id="Group_3495" data-name="Group 3495">
    <path id="Path_5437" data-name="Path 5437" d="M958.261,520.389H919.619a1.3,1.3,0,1,0,0,2.6h37.428v37H919.619a1.3,1.3,0,1,0,0,2.6h38.642a1.332,1.332,0,0,0,1.316-1.3v-39.6A1.332,1.332,0,0,0,958.261,520.389Z" transform="translate(-897.769 -520.389)" fill="#ffffff"/>
    <path id="Path_5438" data-name="Path 5438" d="M910.615,559.889v-6.4a1.315,1.315,0,0,0-2.63,0v6.4a1.315,1.315,0,0,0,2.63,0Z" transform="translate(-897.769 -523.602)" fill="#ffffff"/>
    <path id="Path_5439" data-name="Path 5439" d="M919.619,549.69a1.332,1.332,0,0,0,1.315-1.3v-3.8h11.633a1.331,1.331,0,0,0,1.315-1.3v-5.1a1.332,1.332,0,0,0-1.315-1.3H917.9a10.948,10.948,0,0,0-3.945-2.8,7.689,7.689,0,1,0-9.307,0,11.491,11.491,0,0,0-6.878,10.5v3.9a1.33,1.33,0,0,0,1.314,1.3h3.743v10.2a1.316,1.316,0,0,0,2.631,0v-15.4a1.316,1.316,0,0,0-2.631,0v2.5H900.3v-2.5a8.972,8.972,0,0,1,9-8.9,9.162,9.162,0,0,1,7.081,3.3,1.253,1.253,0,0,0,1.012.5h13.758v2.5H919.518a1.289,1.289,0,0,0-1.315,1.4c0,.4.1.8.1,1.1v2.5h-2.529v-2.5a1.316,1.316,0,0,0-2.631,0v15.3a1.316,1.316,0,0,0,2.631,0v-10.1Zm-15.477-21.6a5.159,5.159,0,1,1,5.158,5.1A5.151,5.151,0,0,1,904.142,528.089Z" transform="translate(-897.769 -520.389)" fill="#ffffff"/>
    <path id="Path_5440" data-name="Path 5440" d="M922.147,556.089a1.332,1.332,0,0,0,1.316,1.3h27.11a1.3,1.3,0,1,0,0-2.6h-27.11A1.332,1.332,0,0,0,922.147,556.089Z" transform="translate(-897.769 -523.485)" fill="#ffffff"/>
    <rect id="Rectangle_2454" data-name="Rectangle 2454" width="2.529" height="2.5" transform="translate(27.009 6.4)" fill="#ffffff"/>
    <rect id="Rectangle_2455" data-name="Rectangle 2455" width="2.529" height="2.5" transform="translate(36.012 6.4)" fill="#ffffff"/>
    <rect id="Rectangle_2456" data-name="Rectangle 2456" width="2.529" height="2.5" transform="translate(45.015 6.4)" fill="#ffffff"/>
    <path id="Path_5441" data-name="Path 5441" d="M909.2,572.289a4.794,4.794,0,0,0,1.416-3.5,5.159,5.159,0,0,0-10.318,0,4.8,4.8,0,0,0,1.416,3.5,7.483,7.483,0,0,0-3.944,6.7v1.3a1.331,1.331,0,0,0,1.314,1.3h12.848a1.331,1.331,0,0,0,1.315-1.3v-1.3A8.266,8.266,0,0,0,909.2,572.289Zm-6.373-3.5a2.529,2.529,0,1,1,2.529,2.5A2.49,2.49,0,0,1,902.826,568.789Zm-2.529,10.2a5.159,5.159,0,0,1,10.318,0Z" transform="translate(-897.769 -525.662)" fill="#ffffff"/>
    <path id="Path_5442" data-name="Path 5442" d="M932.365,572.289a4.8,4.8,0,0,0,1.416-3.5,5.159,5.159,0,0,0-10.318,0,4.794,4.794,0,0,0,1.416,3.5,7.573,7.573,0,0,0-4.047,6.7v1.3a1.331,1.331,0,0,0,1.315,1.3h12.848a1.331,1.331,0,0,0,1.315-1.3v-1.3A7.935,7.935,0,0,0,932.365,572.289Zm-6.272-3.5a2.529,2.529,0,1,1,2.529,2.5A2.49,2.49,0,0,1,926.093,568.789Zm-2.63,10.2a5.159,5.159,0,0,1,10.318,0Z" transform="translate(-897.769 -525.662)" fill="#ffffff"/>
    <path id="Path_5443" data-name="Path 5443" d="M955.53,572.289a4.8,4.8,0,0,0,1.416-3.5,5.159,5.159,0,0,0-10.318,0,4.8,4.8,0,0,0,1.416,3.5,7.484,7.484,0,0,0-3.945,6.7v1.3a1.331,1.331,0,0,0,1.315,1.3h12.847a1.332,1.332,0,0,0,1.316-1.3v-1.3A7.816,7.816,0,0,0,955.53,572.289Zm-6.272-3.5a2.529,2.529,0,1,1,2.529,2.5A2.43,2.43,0,0,1,949.258,568.789Zm-2.63,10.2a5.159,5.159,0,0,1,10.318,0Z" transform="translate(-897.769 -525.662)" fill="#ffffff"/>
  </g>
</svg>
