<svg xmlns="http://www.w3.org/2000/svg" width="15.129" height="12.103" viewBox="0 0 15.129 12.103">
  <path id="_8665828_school_education_icon" data-name="8665828_school_education_icon" d="M7.564,3.026a.379.379,0,0,1,.378.378v.378h.378a.378.378,0,1,1,0,.756H7.564a.379.379,0,0,1-.378-.378V3.4A.379.379,0,0,1,7.564,3.026Zm3.707-.708,2.969.639a1.175,1.175,0,0,1,.889,1.128v6.884A1.135,1.135,0,0,1,13.994,12.1H1.135A1.135,1.135,0,0,1,0,10.969V4.085A1.176,1.176,0,0,1,.889,2.957l2.969-.639L7.144.127a.76.76,0,0,1,.842,0ZM6.052,12.1H9.077V9.834a1.513,1.513,0,0,0-3.026,0ZM2.269,4.539a.379.379,0,0,0-.378.378V6.43a.379.379,0,0,0,.378.378h.756A.379.379,0,0,0,3.4,6.43V4.917a.379.379,0,0,0-.378-.378ZM11.725,6.43a.379.379,0,0,0,.378.378h.756a.379.379,0,0,0,.378-.378V4.917a.379.379,0,0,0-.378-.378H12.1a.379.379,0,0,0-.378.378ZM2.269,7.565a.379.379,0,0,0-.378.378V9.456a.379.379,0,0,0,.378.378h.756A.379.379,0,0,0,3.4,9.456V7.943a.379.379,0,0,0-.378-.378Zm9.456,1.891a.379.379,0,0,0,.378.378h.756a.379.379,0,0,0,.378-.378V7.943a.379.379,0,0,0-.378-.378H12.1a.379.379,0,0,0-.378.378ZM7.564,2.08a2.08,2.08,0,1,0,2.08,2.08A2.08,2.08,0,0,0,7.564,2.08Z" transform="translate(0 0)" fill="#575757"/>
</svg>
