<svg xmlns="http://www.w3.org/2000/svg" width="36.691" height="30.812" viewBox="0 0 36.691 30.812">
  <g id="Universities_Companies" data-name="Universities &amp; Companies" transform="translate(-734.344 -315.489)">
    <path id="Path_5485" data-name="Path 5485" d="M757.581,315.489H747.8a4.587,4.587,0,0,0-4.581,4.583v1.059h-5.25a3.628,3.628,0,0,0-3.623,3.623v17.923a3.628,3.628,0,0,0,3.623,3.624h29.444a3.628,3.628,0,0,0,3.623-3.624V324.754a3.627,3.627,0,0,0-3.623-3.623h-5.25v-1.059A4.587,4.587,0,0,0,757.581,315.489ZM749.2,344.716h-1.036v-22.47H749.2Zm6.232,0h-5.488v-22.47h5.488Zm1.781,0h-1.037v-22.47h1.037Zm.579-23.585H747.586v-1.059a.213.213,0,0,1,.213-.213h9.782a.213.213,0,0,1,.213.213Zm9.618,1.488a2.138,2.138,0,0,1,2.136,2.135v17.923a2.138,2.138,0,0,1-2.136,2.136h-9.453V322.619h.58a.744.744,0,0,0,.744-.744v-1.8a1.7,1.7,0,0,0-1.7-1.7H747.8a1.7,1.7,0,0,0-1.7,1.7v1.8a.744.744,0,0,0,.744.744h.579v22.194h-9.453a2.139,2.139,0,0,1-2.136-2.136V324.754a2.138,2.138,0,0,1,2.136-2.135h5.994a.744.744,0,0,0,.744-.744v-1.8a3.1,3.1,0,0,1,3.093-3.095h9.782a3.1,3.1,0,0,1,3.093,3.095v1.8a.744.744,0,0,0,.744.744Z" fill="#fff"/>
  </g>
</svg>
